<svg width="448" height="164" viewBox="0 0 448 164" fill="none" xmlns="http://www.w3.org/2000/svg">
<rect width="448" height="164" fill="#D41EF2"/>
<path d="M25.8471 17.9844H20.2477C20.1454 17.2599 19.9366 16.6165 19.6213 16.054C19.3059 15.483 18.9011 14.9972 18.4068 14.5966C17.9125 14.196 17.3414 13.8892 16.6937 13.6761C16.0545 13.4631 15.3599 13.3565 14.6099 13.3565C13.2548 13.3565 12.0744 13.6932 11.0687 14.3665C10.063 15.0312 9.2832 16.0028 8.72923 17.2812C8.17525 18.5511 7.89826 20.0937 7.89826 21.9091C7.89826 23.7756 8.17525 25.3437 8.72923 26.6136C9.29173 27.8835 10.0758 28.8423 11.0815 29.4901C12.0872 30.1378 13.2505 30.4616 14.5716 30.4616C15.313 30.4616 15.9991 30.3636 16.6298 30.1676C17.269 29.9716 17.8358 29.6861 18.3301 29.3111C18.8244 28.9276 19.2335 28.4631 19.5574 27.9176C19.8897 27.3722 20.1199 26.75 20.2477 26.0511L25.8471 26.0767C25.7022 27.2784 25.34 28.4375 24.7605 29.554C24.1895 30.6619 23.4181 31.6548 22.4466 32.5327C21.4835 33.402 20.3329 34.0923 18.9949 34.6037C17.6653 35.1065 16.161 35.358 14.4821 35.358C12.1468 35.358 10.0588 34.8295 8.21786 33.7727C6.38548 32.7159 4.93661 31.1861 3.87127 29.1832C2.81445 27.1804 2.28604 24.7557 2.28604 21.9091C2.28604 19.054 2.82298 16.625 3.89684 14.6222C4.9707 12.6193 6.42809 11.0937 8.269 10.0455C10.1099 8.98864 12.1809 8.46023 14.4821 8.46023C15.9991 8.46023 17.4054 8.67329 18.7008 9.09943C20.0048 9.52557 21.1596 10.1477 22.1653 10.9659C23.171 11.7756 23.9892 12.7685 24.6199 13.9446C25.2591 15.1207 25.6681 16.4673 25.8471 17.9844ZM38.5865 35.3835C36.6007 35.3835 34.8833 34.9616 33.4345 34.1179C31.9941 33.2656 30.8819 32.081 30.0978 30.5639C29.3137 29.0384 28.9217 27.2699 28.9217 25.2585C28.9217 23.2301 29.3137 21.4574 30.0978 19.9403C30.8819 18.4148 31.9941 17.2301 33.4345 16.3864C34.8833 15.5341 36.6007 15.108 38.5865 15.108C40.5723 15.108 42.2853 15.5341 43.7257 16.3864C45.1745 17.2301 46.291 18.4148 47.0751 19.9403C47.8592 21.4574 48.2512 23.2301 48.2512 25.2585C48.2512 27.2699 47.8592 29.0384 47.0751 30.5639C46.291 32.081 45.1745 33.2656 43.7257 34.1179C42.2853 34.9616 40.5723 35.3835 38.5865 35.3835ZM38.612 31.1648C39.5154 31.1648 40.2697 30.9091 40.8748 30.3977C41.4799 29.8778 41.9359 29.1705 42.2427 28.2756C42.5581 27.3807 42.7157 26.3622 42.7157 25.2202C42.7157 24.0781 42.5581 23.0597 42.2427 22.1648C41.9359 21.2699 41.4799 20.5625 40.8748 20.0426C40.2697 19.5227 39.5154 19.2628 38.612 19.2628C37.7001 19.2628 36.9331 19.5227 36.3109 20.0426C35.6973 20.5625 35.2328 21.2699 34.9174 22.1648C34.6106 23.0597 34.4572 24.0781 34.4572 25.2202C34.4572 26.3622 34.6106 27.3807 34.9174 28.2756C35.2328 29.1705 35.6973 29.8778 36.3109 30.3977C36.9331 30.9091 37.7001 31.1648 38.612 31.1648ZM57.2385 23.6477V35H51.7924V15.3636H56.9828V18.8281H57.2129C57.6475 17.6861 58.3762 16.7827 59.399 16.1179C60.4217 15.4446 61.6618 15.108 63.1191 15.108C64.4828 15.108 65.6717 15.4062 66.6859 16.0028C67.7001 16.5994 68.4885 17.4517 69.051 18.5597C69.6135 19.6591 69.8947 20.9716 69.8947 22.4972V35H64.4487V23.4688C64.4572 22.267 64.1504 21.3295 63.5282 20.6562C62.9061 19.9744 62.0495 19.6335 60.9586 19.6335C60.2257 19.6335 59.5779 19.7912 59.0154 20.1065C58.4615 20.4219 58.0268 20.8821 57.7115 21.4872C57.4047 22.0838 57.247 22.804 57.2385 23.6477ZM84.6316 15.3636V19.4545H72.8063V15.3636H84.6316ZM75.4909 10.6591H80.937V28.9659C80.937 29.4687 81.0137 29.8608 81.1671 30.142C81.3205 30.4148 81.5336 30.6065 81.8063 30.7173C82.0875 30.8281 82.4114 30.8835 82.7779 30.8835C83.0336 30.8835 83.2892 30.8622 83.5449 30.8196C83.8006 30.7685 83.9966 30.7301 84.133 30.7045L84.9895 34.7571C84.7168 34.8423 84.3333 34.9403 83.839 35.0511C83.3446 35.1705 82.7438 35.2429 82.0364 35.2685C80.7239 35.3196 79.5733 35.1449 78.5847 34.7443C77.6046 34.3437 76.8418 33.7216 76.2963 32.8778C75.7509 32.0341 75.4824 30.9687 75.4909 29.6818V10.6591ZM93.7786 35.3707C92.5257 35.3707 91.4093 35.1534 90.4292 34.7188C89.449 34.2756 88.6735 33.6236 88.1025 32.7628C87.54 31.8935 87.2587 30.8111 87.2587 29.5156C87.2587 28.4247 87.459 27.5085 87.8596 26.767C88.2601 26.0256 88.8056 25.429 89.4959 24.9773C90.1863 24.5256 90.9703 24.1847 91.8482 23.9545C92.7346 23.7244 93.6635 23.5625 94.6351 23.4688C95.7772 23.3494 96.6976 23.2386 97.3965 23.1364C98.0953 23.0256 98.6025 22.8636 98.9178 22.6506C99.2331 22.4375 99.3908 22.1222 99.3908 21.7045V21.6278C99.3908 20.8182 99.1351 20.1918 98.6238 19.7486C98.1209 19.3054 97.405 19.0838 96.476 19.0838C95.4959 19.0838 94.7161 19.3011 94.1365 19.7358C93.557 20.1619 93.1735 20.6989 92.986 21.3466L87.949 20.9375C88.2047 19.7443 88.7076 18.7131 89.4576 17.8438C90.2076 16.9659 91.1749 16.2926 92.3596 15.8239C93.5527 15.3466 94.9334 15.108 96.5016 15.108C97.5925 15.108 98.6365 15.2358 99.6337 15.4915C100.639 15.7472 101.53 16.1435 102.306 16.6804C103.09 17.2173 103.708 17.9077 104.159 18.7514C104.611 19.5866 104.837 20.5881 104.837 21.7557V35H99.6721V32.277H99.5186C99.2033 32.8906 98.7814 33.4318 98.253 33.9006C97.7246 34.3608 97.0897 34.723 96.3482 34.9872C95.6067 35.2429 94.7502 35.3707 93.7786 35.3707ZM95.3382 31.6122C96.1394 31.6122 96.8468 31.4545 97.4604 31.1392C98.074 30.8153 98.5556 30.3807 98.905 29.8352C99.2544 29.2898 99.4292 28.6719 99.4292 27.9815V25.8977C99.2587 26.0085 99.0243 26.1108 98.726 26.2045C98.4363 26.2898 98.1081 26.3707 97.7417 26.4474C97.3752 26.5156 97.0087 26.5795 96.6422 26.6392C96.2757 26.6903 95.9434 26.7372 95.6451 26.7798C95.0059 26.8736 94.4476 27.0227 93.9703 27.2273C93.4931 27.4318 93.1223 27.7088 92.8581 28.0582C92.5939 28.3991 92.4618 28.8253 92.4618 29.3366C92.4618 30.0781 92.7303 30.6449 93.2672 31.0369C93.8127 31.4205 94.503 31.6122 95.3382 31.6122ZM117.934 35.3835C115.923 35.3835 114.193 34.9574 112.744 34.1051C111.303 33.2443 110.195 32.0511 109.42 30.5256C108.653 29 108.269 27.2443 108.269 25.2585C108.269 23.2472 108.657 21.483 109.433 19.9659C110.217 18.4403 111.329 17.2514 112.769 16.3991C114.21 15.5384 115.923 15.108 117.909 15.108C119.622 15.108 121.122 15.419 122.409 16.0412C123.695 16.6634 124.714 17.5369 125.464 18.6619C126.214 19.7869 126.627 21.108 126.704 22.625H121.565C121.42 21.6449 121.036 20.8565 120.414 20.2599C119.801 19.6548 118.995 19.3523 117.998 19.3523C117.154 19.3523 116.417 19.5824 115.786 20.0426C115.164 20.4943 114.678 21.1548 114.329 22.0241C113.98 22.8935 113.805 23.946 113.805 25.1818C113.805 26.4347 113.975 27.5 114.316 28.3778C114.666 29.2557 115.156 29.9247 115.786 30.3849C116.417 30.8452 117.154 31.0753 117.998 31.0753C118.62 31.0753 119.178 30.9474 119.673 30.6918C120.176 30.4361 120.589 30.0653 120.913 29.5795C121.245 29.0852 121.463 28.4929 121.565 27.8026H126.704C126.619 29.3026 126.21 30.6236 125.477 31.7656C124.752 32.8991 123.751 33.7855 122.472 34.4247C121.194 35.0639 119.681 35.3835 117.934 35.3835ZM140.635 15.3636V19.4545H128.81V15.3636H140.635ZM131.495 10.6591H136.941V28.9659C136.941 29.4687 137.018 29.8608 137.171 30.142C137.324 30.4148 137.537 30.6065 137.81 30.7173C138.091 30.8281 138.415 30.8835 138.782 30.8835C139.037 30.8835 139.293 30.8622 139.549 30.8196C139.805 30.7685 140.001 30.7301 140.137 30.7045L140.993 34.7571C140.721 34.8423 140.337 34.9403 139.843 35.0511C139.349 35.1705 138.748 35.2429 138.04 35.2685C136.728 35.3196 135.577 35.1449 134.589 34.7443C133.608 34.3437 132.846 33.7216 132.3 32.8778C131.755 32.0341 131.486 30.9687 131.495 29.6818V10.6591ZM152.515 35V15.3636H157.961V35H152.515ZM155.251 12.8324C154.441 12.8324 153.747 12.5639 153.167 12.027C152.596 11.4815 152.311 10.8295 152.311 10.071C152.311 9.32102 152.596 8.67756 153.167 8.14062C153.747 7.59517 154.441 7.32244 155.251 7.32244C156.061 7.32244 156.751 7.59517 157.322 8.14062C157.901 8.67756 158.191 9.32102 158.191 10.071C158.191 10.8295 157.901 11.4815 157.322 12.027C156.751 12.5639 156.061 12.8324 155.251 12.8324ZM167.77 23.6477V35H162.324V15.3636H167.514V18.8281H167.744C168.179 17.6861 168.907 16.7827 169.93 16.1179C170.953 15.4446 172.193 15.108 173.65 15.108C175.014 15.108 176.203 15.4062 177.217 16.0028C178.231 16.5994 179.02 17.4517 179.582 18.5597C180.145 19.6591 180.426 20.9716 180.426 22.4972V35H174.98V23.4688C174.988 22.267 174.682 21.3295 174.059 20.6562C173.437 19.9744 172.581 19.6335 171.49 19.6335C170.757 19.6335 170.109 19.7912 169.547 20.1065C168.993 20.4219 168.558 20.8821 168.243 21.4872C167.936 22.0838 167.778 22.804 167.77 23.6477ZM195.278 15.3636V19.4545H183.159V15.3636H195.278ZM185.933 35V13.9446C185.933 12.5213 186.21 11.3409 186.764 10.4034C187.326 9.46591 188.093 8.76278 189.065 8.29403C190.036 7.82528 191.14 7.59091 192.376 7.59091C193.211 7.59091 193.974 7.65483 194.664 7.78267C195.363 7.91051 195.883 8.02557 196.224 8.12784L195.252 12.2188C195.039 12.1506 194.775 12.0866 194.46 12.027C194.153 11.9673 193.838 11.9375 193.514 11.9375C192.713 11.9375 192.154 12.125 191.839 12.5C191.524 12.8665 191.366 13.3821 191.366 14.0469V35H185.933ZM206.774 35.3835C204.788 35.3835 203.071 34.9616 201.622 34.1179C200.182 33.2656 199.069 32.081 198.285 30.5639C197.501 29.0384 197.109 27.2699 197.109 25.2585C197.109 23.2301 197.501 21.4574 198.285 19.9403C199.069 18.4148 200.182 17.2301 201.622 16.3864C203.071 15.5341 204.788 15.108 206.774 15.108C208.76 15.108 210.473 15.5341 211.913 16.3864C213.362 17.2301 214.479 18.4148 215.263 19.9403C216.047 21.4574 216.439 23.2301 216.439 25.2585C216.439 27.2699 216.047 29.0384 215.263 30.5639C214.479 32.081 213.362 33.2656 211.913 34.1179C210.473 34.9616 208.76 35.3835 206.774 35.3835ZM206.8 31.1648C207.703 31.1648 208.457 30.9091 209.062 30.3977C209.667 29.8778 210.123 29.1705 210.43 28.2756C210.746 27.3807 210.903 26.3622 210.903 25.2202C210.903 24.0781 210.746 23.0597 210.43 22.1648C210.123 21.2699 209.667 20.5625 209.062 20.0426C208.457 19.5227 207.703 19.2628 206.8 19.2628C205.888 19.2628 205.121 19.5227 204.498 20.0426C203.885 20.5625 203.42 21.2699 203.105 22.1648C202.798 23.0597 202.645 24.0781 202.645 25.2202C202.645 26.3622 202.798 27.3807 203.105 28.2756C203.42 29.1705 203.885 29.8778 204.498 30.3977C205.121 30.9091 205.888 31.1648 206.8 31.1648ZM219.98 35V15.3636H225.26V18.7898H225.464C225.822 17.571 226.423 16.6506 227.267 16.0284C228.111 15.3977 229.082 15.0824 230.182 15.0824C230.454 15.0824 230.748 15.0994 231.064 15.1335C231.379 15.1676 231.656 15.2145 231.895 15.2741V20.1065C231.639 20.0298 231.285 19.9616 230.834 19.902C230.382 19.8423 229.969 19.8125 229.594 19.8125C228.792 19.8125 228.077 19.9872 227.446 20.3366C226.824 20.6776 226.329 21.1548 225.963 21.7685C225.605 22.3821 225.426 23.0895 225.426 23.8906V35H219.98ZM234.71 35V15.3636H239.901V18.8281H240.131C240.54 17.6776 241.222 16.7699 242.176 16.1051C243.131 15.4403 244.273 15.108 245.602 15.108C246.949 15.108 248.095 15.4446 249.041 16.1179C249.987 16.7827 250.618 17.6861 250.933 18.8281H251.138C251.539 17.7031 252.263 16.804 253.311 16.1307C254.368 15.4489 255.617 15.108 257.057 15.108C258.889 15.108 260.377 15.6918 261.519 16.8594C262.669 18.0185 263.244 19.6634 263.244 21.794V35H257.811V22.8679C257.811 21.777 257.521 20.9588 256.942 20.4134C256.362 19.8679 255.638 19.5952 254.769 19.5952C253.78 19.5952 253.009 19.9105 252.455 20.5412C251.901 21.1634 251.624 21.9858 251.624 23.0085V35H246.344V22.7528C246.344 21.7898 246.067 21.0227 245.513 20.4517C244.968 19.8807 244.247 19.5952 243.352 19.5952C242.747 19.5952 242.202 19.7486 241.716 20.0554C241.239 20.3537 240.86 20.7756 240.578 21.321C240.297 21.858 240.156 22.4886 240.156 23.2131V35H234.71ZM273.146 35.3707C271.893 35.3707 270.776 35.1534 269.796 34.7188C268.816 34.2756 268.041 33.6236 267.47 32.7628C266.907 31.8935 266.626 30.8111 266.626 29.5156C266.626 28.4247 266.826 27.5085 267.227 26.767C267.627 26.0256 268.173 25.429 268.863 24.9773C269.553 24.5256 270.338 24.1847 271.215 23.9545C272.102 23.7244 273.031 23.5625 274.002 23.4688C275.144 23.3494 276.065 23.2386 276.764 23.1364C277.463 23.0256 277.97 22.8636 278.285 22.6506C278.6 22.4375 278.758 22.1222 278.758 21.7045V21.6278C278.758 20.8182 278.502 20.1918 277.991 19.7486C277.488 19.3054 276.772 19.0838 275.843 19.0838C274.863 19.0838 274.083 19.3011 273.504 19.7358C272.924 20.1619 272.541 20.6989 272.353 21.3466L267.316 20.9375C267.572 19.7443 268.075 18.7131 268.825 17.8438C269.575 16.9659 270.542 16.2926 271.727 15.8239C272.92 15.3466 274.301 15.108 275.869 15.108C276.96 15.108 278.004 15.2358 279.001 15.4915C280.007 15.7472 280.897 16.1435 281.673 16.6804C282.457 17.2173 283.075 17.9077 283.526 18.7514C283.978 19.5866 284.204 20.5881 284.204 21.7557V35H279.039V32.277H278.886C278.57 32.8906 278.149 33.4318 277.62 33.9006C277.092 34.3608 276.457 34.723 275.715 34.9872C274.974 35.2429 274.117 35.3707 273.146 35.3707ZM274.705 31.6122C275.507 31.6122 276.214 31.4545 276.828 31.1392C277.441 30.8153 277.923 30.3807 278.272 29.8352C278.622 29.2898 278.796 28.6719 278.796 27.9815V25.8977C278.626 26.0085 278.392 26.1108 278.093 26.2045C277.803 26.2898 277.475 26.3707 277.109 26.4474C276.742 26.5156 276.376 26.5795 276.009 26.6392C275.643 26.6903 275.311 26.7372 275.012 26.7798C274.373 26.8736 273.815 27.0227 273.338 27.2273C272.86 27.4318 272.49 27.7088 272.225 28.0582C271.961 28.3991 271.829 28.8253 271.829 29.3366C271.829 30.0781 272.097 30.6449 272.634 31.0369C273.18 31.4205 273.87 31.6122 274.705 31.6122ZM298.874 15.3636V19.4545H287.048V15.3636H298.874ZM289.733 10.6591H295.179V28.9659C295.179 29.4687 295.256 29.8608 295.409 30.142C295.563 30.4148 295.776 30.6065 296.048 30.7173C296.33 30.8281 296.654 30.8835 297.02 30.8835C297.276 30.8835 297.531 30.8622 297.787 30.8196C298.043 30.7685 298.239 30.7301 298.375 30.7045L299.232 34.7571C298.959 34.8423 298.575 34.9403 298.081 35.0511C297.587 35.1705 296.986 35.2429 296.279 35.2685C294.966 35.3196 293.816 35.1449 292.827 34.7443C291.847 34.3437 291.084 33.7216 290.539 32.8778C289.993 32.0341 289.725 30.9687 289.733 29.6818V10.6591ZM302.421 35V15.3636H307.867V35H302.421ZM305.157 12.8324C304.347 12.8324 303.653 12.5639 303.073 12.027C302.502 11.4815 302.217 10.8295 302.217 10.071C302.217 9.32102 302.502 8.67756 303.073 8.14062C303.653 7.59517 304.347 7.32244 305.157 7.32244C305.967 7.32244 306.657 7.59517 307.228 8.14062C307.808 8.67756 308.097 9.32102 308.097 10.071C308.097 10.8295 307.808 11.4815 307.228 12.027C306.657 12.5639 305.967 12.8324 305.157 12.8324ZM321.102 35.3835C319.116 35.3835 317.399 34.9616 315.95 34.1179C314.51 33.2656 313.398 32.081 312.613 30.5639C311.829 29.0384 311.437 27.2699 311.437 25.2585C311.437 23.2301 311.829 21.4574 312.613 19.9403C313.398 18.4148 314.51 17.2301 315.95 16.3864C317.399 15.5341 319.116 15.108 321.102 15.108C323.088 15.108 324.801 15.5341 326.241 16.3864C327.69 17.2301 328.807 18.4148 329.591 19.9403C330.375 21.4574 330.767 23.2301 330.767 25.2585C330.767 27.2699 330.375 29.0384 329.591 30.5639C328.807 32.081 327.69 33.2656 326.241 34.1179C324.801 34.9616 323.088 35.3835 321.102 35.3835ZM321.128 31.1648C322.031 31.1648 322.785 30.9091 323.39 30.3977C323.996 29.8778 324.452 29.1705 324.758 28.2756C325.074 27.3807 325.231 26.3622 325.231 25.2202C325.231 24.0781 325.074 23.0597 324.758 22.1648C324.452 21.2699 323.996 20.5625 323.39 20.0426C322.785 19.5227 322.031 19.2628 321.128 19.2628C320.216 19.2628 319.449 19.5227 318.827 20.0426C318.213 20.5625 317.748 21.2699 317.433 22.1648C317.126 23.0597 316.973 24.0781 316.973 25.2202C316.973 26.3622 317.126 27.3807 317.433 28.2756C317.748 29.1705 318.213 29.8778 318.827 30.3977C319.449 30.9091 320.216 31.1648 321.128 31.1648ZM339.754 23.6477V35H334.308V15.3636H339.498V18.8281H339.729C340.163 17.6861 340.892 16.7827 341.915 16.1179C342.937 15.4446 344.177 15.108 345.635 15.108C346.998 15.108 348.187 15.4062 349.202 16.0028C350.216 16.5994 351.004 17.4517 351.567 18.5597C352.129 19.6591 352.41 20.9716 352.41 22.4972V35H346.964V23.4688C346.973 22.267 346.666 21.3295 346.044 20.6562C345.422 19.9744 344.565 19.6335 343.474 19.6335C342.741 19.6335 342.094 19.7912 341.531 20.1065C340.977 20.4219 340.542 20.8821 340.227 21.4872C339.92 22.0838 339.763 22.804 339.754 23.6477Z" fill="white"/>
<path d="M2.60014 79H0.753551L6.09446 64.4545H7.91264L13.2536 79H11.407L7.06037 66.7557H6.94673L2.60014 79ZM3.28196 73.3182H10.7251V74.8807H3.28196V73.3182ZM19.4112 79.2273C18.5021 79.2273 17.6996 78.9976 17.0036 78.5384C16.3075 78.0743 15.763 77.4209 15.37 76.5781C14.977 75.7306 14.7805 74.7292 14.7805 73.5739C14.7805 72.428 14.977 71.4337 15.37 70.5909C15.763 69.7481 16.3099 69.0971 17.0107 68.6378C17.7114 68.1785 18.5211 67.9489 19.4396 67.9489C20.1499 67.9489 20.7109 68.0672 21.1229 68.304C21.5395 68.536 21.8568 68.8011 22.0746 69.0994C22.2971 69.393 22.4699 69.6345 22.593 69.8239H22.7351V64.4545H24.4112V79H22.7919V77.3239H22.593C22.4699 77.5227 22.2947 77.7737 22.0675 78.0767C21.8402 78.375 21.5159 78.6425 21.0945 78.8793C20.6731 79.1113 20.112 79.2273 19.4112 79.2273ZM19.6385 77.7216C20.3108 77.7216 20.879 77.5464 21.343 77.196C21.8071 76.8409 22.1598 76.3509 22.4013 75.7259C22.6428 75.0961 22.7635 74.3693 22.7635 73.5455C22.7635 72.7311 22.6451 72.0185 22.4084 71.4077C22.1716 70.7921 21.8213 70.3139 21.3572 69.973C20.8932 69.6274 20.3203 69.4545 19.6385 69.4545C18.9283 69.4545 18.3364 69.6368 17.8629 70.0014C17.3942 70.3613 17.0414 70.8513 16.8047 71.4716C16.5727 72.0871 16.4567 72.7784 16.4567 73.5455C16.4567 74.322 16.575 75.0275 16.8118 75.6619C17.0533 76.2917 17.4084 76.7936 17.8771 77.1676C18.3506 77.5369 18.9377 77.7216 19.6385 77.7216ZM31.8331 79.2273C30.924 79.2273 30.1214 78.9976 29.4254 78.5384C28.7294 78.0743 28.1849 77.4209 27.7919 76.5781C27.3989 75.7306 27.2024 74.7292 27.2024 73.5739C27.2024 72.428 27.3989 71.4337 27.7919 70.5909C28.1849 69.7481 28.7318 69.0971 29.4325 68.6378C30.1333 68.1785 30.9429 67.9489 31.8615 67.9489C32.5717 67.9489 33.1328 68.0672 33.5447 68.304C33.9614 68.536 34.2786 68.8011 34.4964 69.0994C34.719 69.393 34.8918 69.6345 35.0149 69.8239H35.157V64.4545H36.8331V79H35.2138V77.3239H35.0149C34.8918 77.5227 34.7166 77.7737 34.4893 78.0767C34.2621 78.375 33.9377 78.6425 33.5163 78.8793C33.0949 79.1113 32.5339 79.2273 31.8331 79.2273ZM32.0604 77.7216C32.7327 77.7216 33.3009 77.5464 33.7649 77.196C34.2289 76.8409 34.5817 76.3509 34.8232 75.7259C35.0646 75.0961 35.1854 74.3693 35.1854 73.5455C35.1854 72.7311 35.067 72.0185 34.8303 71.4077C34.5935 70.7921 34.2431 70.3139 33.7791 69.973C33.3151 69.6274 32.7422 69.4545 32.0604 69.4545C31.3501 69.4545 30.7583 69.6368 30.2848 70.0014C29.8161 70.3613 29.4633 70.8513 29.2266 71.4716C28.9946 72.0871 28.8786 72.7784 28.8786 73.5455C28.8786 74.322 28.9969 75.0275 29.2337 75.6619C29.4751 76.2917 29.8303 76.7936 30.299 77.1676C30.7725 77.5369 31.3596 77.7216 32.0604 77.7216ZM40.1357 79V68.0909H41.755V69.7386H41.8686C42.0675 69.1989 42.4273 68.7609 42.9482 68.4247C43.469 68.0885 44.0561 67.9205 44.7095 67.9205C44.8326 67.9205 44.9865 67.9228 45.1712 67.9276C45.3558 67.9323 45.4955 67.9394 45.5902 67.9489V69.6534C45.5334 69.6392 45.4032 69.6179 45.1996 69.5895C45.0007 69.5563 44.79 69.5398 44.5675 69.5398C44.0372 69.5398 43.5637 69.651 43.147 69.8736C42.7351 70.0914 42.4084 70.3944 42.1669 70.7827C41.9302 71.1662 41.8118 71.6042 41.8118 72.0966V79H40.1357ZM51.8189 79.2273C50.7678 79.2273 49.861 78.9953 49.0987 78.5312C48.3411 78.0625 47.7564 77.4091 47.3445 76.571C46.9373 75.7282 46.7337 74.7481 46.7337 73.6307C46.7337 72.5133 46.9373 71.5284 47.3445 70.6761C47.7564 69.8191 48.3293 69.1515 49.0632 68.6733C49.8018 68.1903 50.6636 67.9489 51.6484 67.9489C52.2166 67.9489 52.7777 68.0436 53.3317 68.233C53.8857 68.4223 54.3899 68.7301 54.8445 69.1562C55.299 69.5777 55.6612 70.1364 55.9311 70.8324C56.201 71.5284 56.3359 72.3854 56.3359 73.4034V74.1136H47.9268V72.6648H54.6314C54.6314 72.0492 54.5083 71.5 54.2621 71.017C54.0206 70.5341 53.675 70.1529 53.2251 69.8736C52.7801 69.5942 52.2545 69.4545 51.6484 69.4545C50.9808 69.4545 50.4032 69.6203 49.9155 69.9517C49.4325 70.2784 49.0608 70.7045 48.8004 71.2301C48.54 71.7557 48.4098 72.3191 48.4098 72.9205V73.8864C48.4098 74.7102 48.5518 75.4086 48.8359 75.9815C49.1248 76.5497 49.5249 76.983 50.0362 77.2812C50.5476 77.5748 51.1418 77.7216 51.8189 77.7216C52.2592 77.7216 52.657 77.66 53.0121 77.5369C53.3719 77.4091 53.6821 77.2197 53.9425 76.9688C54.2029 76.7131 54.4041 76.3958 54.5462 76.017L56.1655 76.4716C55.995 77.0208 55.7086 77.5038 55.3061 77.9205C54.9036 78.3324 54.4065 78.6544 53.8146 78.8864C53.2228 79.1136 52.5575 79.2273 51.8189 79.2273ZM66.6129 70.5341L65.1072 70.9602C65.0125 70.7093 64.8729 70.4654 64.6882 70.2287C64.5083 69.9872 64.2621 69.7884 63.9496 69.6321C63.6371 69.4759 63.237 69.3977 62.7493 69.3977C62.0817 69.3977 61.5253 69.5516 61.0803 69.8594C60.6399 70.1624 60.4197 70.5483 60.4197 71.017C60.4197 71.4337 60.5713 71.7628 60.8743 72.0043C61.1773 72.2457 61.6508 72.447 62.2947 72.608L63.9141 73.0057C64.8894 73.2424 65.6162 73.6046 66.0945 74.0923C66.5727 74.5753 66.8118 75.1979 66.8118 75.9602C66.8118 76.5852 66.6319 77.1439 66.272 77.6364C65.9169 78.1288 65.4197 78.517 64.7805 78.8011C64.1413 79.0852 63.398 79.2273 62.5504 79.2273C61.4377 79.2273 60.5168 78.9858 59.7876 78.5028C59.0585 78.0199 58.5968 77.3144 58.4027 76.3864L59.9936 75.9886C60.1451 76.5758 60.4316 77.0161 60.853 77.3097C61.2791 77.6032 61.8355 77.75 62.522 77.75C63.3033 77.75 63.9235 77.5843 64.3828 77.2528C64.8468 76.9167 65.0788 76.5142 65.0788 76.0455C65.0788 75.6667 64.9463 75.3494 64.6811 75.0938C64.416 74.8333 64.0088 74.6392 63.4595 74.5114L61.6413 74.0852C60.6423 73.8485 59.9084 73.4815 59.4396 72.9844C58.9756 72.4825 58.7436 71.8551 58.7436 71.1023C58.7436 70.4867 58.9164 69.9422 59.2621 69.4688C59.6125 68.9953 60.0883 68.6236 60.6896 68.3537C61.2957 68.0838 61.9822 67.9489 62.7493 67.9489C63.8288 67.9489 64.6764 68.1856 65.2919 68.6591C65.9122 69.1326 66.3525 69.7576 66.6129 70.5341ZM77.0621 70.5341L75.5565 70.9602C75.4618 70.7093 75.3221 70.4654 75.1374 70.2287C74.9575 69.9872 74.7113 69.7884 74.3988 69.6321C74.0863 69.4759 73.6862 69.3977 73.1985 69.3977C72.5309 69.3977 71.9746 69.5516 71.5295 69.8594C71.0891 70.1624 70.869 70.5483 70.869 71.017C70.869 71.4337 71.0205 71.7628 71.3235 72.0043C71.6265 72.2457 72.1 72.447 72.744 72.608L74.3633 73.0057C75.3387 73.2424 76.0655 73.6046 76.5437 74.0923C77.0219 74.5753 77.261 75.1979 77.261 75.9602C77.261 76.5852 77.0811 77.1439 76.7212 77.6364C76.3661 78.1288 75.869 78.517 75.2298 78.8011C74.5906 79.0852 73.8472 79.2273 72.9996 79.2273C71.887 79.2273 70.966 78.9858 70.2369 78.5028C69.5077 78.0199 69.046 77.3144 68.8519 76.3864L70.4428 75.9886C70.5943 76.5758 70.8808 77.0161 71.3022 77.3097C71.7283 77.6032 72.2847 77.75 72.9712 77.75C73.7525 77.75 74.3728 77.5843 74.832 77.2528C75.296 76.9167 75.5281 76.5142 75.5281 76.0455C75.5281 75.6667 75.3955 75.3494 75.1303 75.0938C74.8652 74.8333 74.458 74.6392 73.9087 74.5114L72.0906 74.0852C71.0915 73.8485 70.3576 73.4815 69.8888 72.9844C69.4248 72.4825 69.1928 71.8551 69.1928 71.1023C69.1928 70.4867 69.3656 69.9422 69.7113 69.4688C70.0617 68.9953 70.5375 68.6236 71.1388 68.3537C71.7449 68.0838 72.4315 67.9489 73.1985 67.9489C74.2781 67.9489 75.1256 68.1856 75.7411 68.6591C76.3614 69.1326 76.8017 69.7576 77.0621 70.5341ZM81.0057 79.1136C80.6553 79.1136 80.3546 78.9882 80.1037 78.7372C79.8527 78.4863 79.7273 78.1856 79.7273 77.8352C79.7273 77.4848 79.8527 77.1842 80.1037 76.9332C80.3546 76.6823 80.6553 76.5568 81.0057 76.5568C81.3561 76.5568 81.6567 76.6823 81.9077 76.9332C82.1586 77.1842 82.2841 77.4848 82.2841 77.8352C82.2841 78.0672 82.2249 78.2803 82.1065 78.4744C81.9929 78.6686 81.839 78.8248 81.6449 78.9432C81.4555 79.0568 81.2424 79.1136 81.0057 79.1136ZM81.0057 71.017C80.6553 71.017 80.3546 70.8916 80.1037 70.6406C79.8527 70.3897 79.7273 70.089 79.7273 69.7386C79.7273 69.3883 79.8527 69.0876 80.1037 68.8366C80.3546 68.5857 80.6553 68.4602 81.0057 68.4602C81.3561 68.4602 81.6567 68.5857 81.9077 68.8366C82.1586 69.0876 82.2841 69.3883 82.2841 69.7386C82.2841 69.9706 82.2249 70.1837 82.1065 70.3778C81.9929 70.572 81.839 70.7282 81.6449 70.8466C81.4555 70.9602 81.2424 71.017 81.0057 71.017Z" fill="#C0F6EF"/>
<path d="M98.5684 79H94.0797V64.4545H98.7672C100.178 64.4545 101.386 64.7457 102.389 65.3281C103.393 65.9058 104.163 66.7367 104.698 67.821C105.233 68.9006 105.5 70.1932 105.5 71.6989C105.5 73.214 105.23 74.5185 104.691 75.6122C104.151 76.7012 103.365 77.5393 102.333 78.1264C101.3 78.7088 100.046 79 98.5684 79ZM95.8411 77.4375H98.4547C99.6574 77.4375 100.654 77.2055 101.445 76.7415C102.235 76.2775 102.825 75.617 103.213 74.7599C103.602 73.9029 103.796 72.8826 103.796 71.6989C103.796 70.5246 103.604 69.5137 103.22 68.6662C102.837 67.8139 102.264 67.1605 101.502 66.706C100.739 66.2467 99.79 66.017 98.6536 66.017H95.8411V77.4375ZM111.438 79.2557C110.746 79.2557 110.119 79.1255 109.556 78.8651C108.992 78.5999 108.545 78.2188 108.213 77.7216C107.882 77.2197 107.716 76.6136 107.716 75.9034C107.716 75.2784 107.839 74.7718 108.085 74.3835C108.332 73.9905 108.661 73.6828 109.073 73.4602C109.485 73.2377 109.939 73.072 110.436 72.9631C110.938 72.8494 111.442 72.7595 111.949 72.6932C112.612 72.608 113.149 72.544 113.561 72.5014C113.978 72.4541 114.281 72.3759 114.47 72.267C114.664 72.1581 114.762 71.9687 114.762 71.6989V71.642C114.762 70.9413 114.57 70.3968 114.186 70.0085C113.807 69.6203 113.232 69.4261 112.46 69.4261C111.66 69.4261 111.033 69.6013 110.578 69.9517C110.124 70.3021 109.804 70.6761 109.619 71.0739L108.029 70.5057C108.313 69.8428 108.691 69.3267 109.165 68.9574C109.643 68.5833 110.164 68.3229 110.727 68.1761C111.296 68.0246 111.854 67.9489 112.404 67.9489C112.754 67.9489 113.156 67.9915 113.611 68.0767C114.07 68.1572 114.513 68.3253 114.939 68.581C115.37 68.8366 115.727 69.2225 116.012 69.7386C116.296 70.2547 116.438 70.946 116.438 71.8125V79H114.762V77.5227H114.676C114.563 77.7595 114.373 78.0128 114.108 78.2827C113.843 78.5526 113.49 78.7822 113.05 78.9716C112.61 79.161 112.072 79.2557 111.438 79.2557ZM111.693 77.75C112.356 77.75 112.915 77.6198 113.369 77.3594C113.829 77.099 114.174 76.7628 114.406 76.3509C114.643 75.9389 114.762 75.5057 114.762 75.0511V73.517C114.691 73.6023 114.534 73.6804 114.293 73.7514C114.056 73.8177 113.781 73.8769 113.469 73.929C113.161 73.9763 112.86 74.0189 112.567 74.0568C112.278 74.09 112.044 74.1184 111.864 74.142C111.428 74.1989 111.021 74.2912 110.642 74.419C110.268 74.5421 109.965 74.7292 109.733 74.9801C109.506 75.2263 109.392 75.5625 109.392 75.9886C109.392 76.571 109.608 77.0114 110.039 77.3097C110.474 77.6032 111.026 77.75 111.693 77.75ZM128.027 68.0909L123.993 79H122.288L118.254 68.0909H120.072L123.084 76.7841H123.197L126.209 68.0909H128.027ZM130.239 79V68.0909H131.915V79H130.239ZM131.091 66.2727C130.765 66.2727 130.483 66.1615 130.246 65.9389C130.014 65.7164 129.898 65.4489 129.898 65.1364C129.898 64.8239 130.014 64.5563 130.246 64.3338C130.483 64.1113 130.765 64 131.091 64C131.418 64 131.698 64.1113 131.93 64.3338C132.166 64.5563 132.285 64.8239 132.285 65.1364C132.285 65.4489 132.166 65.7164 131.93 65.9389C131.698 66.1615 131.418 66.2727 131.091 66.2727ZM139.105 79.2273C138.195 79.2273 137.393 78.9976 136.697 78.5384C136.001 78.0743 135.456 77.4209 135.063 76.5781C134.67 75.7306 134.474 74.7292 134.474 73.5739C134.474 72.428 134.67 71.4337 135.063 70.5909C135.456 69.7481 136.003 69.0971 136.704 68.6378C137.405 68.1785 138.214 67.9489 139.133 67.9489C139.843 67.9489 140.404 68.0672 140.816 68.304C141.233 68.536 141.55 68.8011 141.768 69.0994C141.99 69.393 142.163 69.6345 142.286 69.8239H142.428V64.4545H144.105V79H142.485V77.3239H142.286C142.163 77.5227 141.988 77.7737 141.761 78.0767C141.534 78.375 141.209 78.6425 140.788 78.8793C140.366 79.1113 139.805 79.2273 139.105 79.2273ZM139.332 77.7216C140.004 77.7216 140.572 77.5464 141.036 77.196C141.5 76.8409 141.853 76.3509 142.095 75.7259C142.336 75.0961 142.457 74.3693 142.457 73.5455C142.457 72.7311 142.338 72.0185 142.102 71.4077C141.865 70.7921 141.515 70.3139 141.051 69.973C140.587 69.6274 140.014 69.4545 139.332 69.4545C138.622 69.4545 138.03 69.6368 137.556 70.0014C137.088 70.3613 136.735 70.8513 136.498 71.4716C136.266 72.0871 136.15 72.7784 136.15 73.5455C136.15 74.322 136.268 75.0275 136.505 75.6619C136.747 76.2917 137.102 76.7936 137.57 77.1676C138.044 77.5369 138.631 77.7216 139.332 77.7216ZM153.856 79H152.009L157.35 64.4545H159.169L164.509 79H162.663L158.316 66.7557H158.203L153.856 79ZM154.538 73.3182H161.981V74.8807H154.538V73.3182ZM170.951 83.3182C170.142 83.3182 169.445 83.214 168.863 83.0057C168.281 82.8021 167.795 82.5322 167.407 82.196C167.024 81.8646 166.718 81.5095 166.491 81.1307L167.826 80.1932C167.978 80.392 168.169 80.6193 168.401 80.875C168.633 81.1354 168.951 81.3603 169.353 81.5497C169.76 81.7438 170.293 81.8409 170.951 81.8409C171.832 81.8409 172.559 81.6278 173.132 81.2017C173.704 80.7756 173.991 80.108 173.991 79.1989V76.983H173.849C173.726 77.1818 173.551 77.428 173.323 77.7216C173.101 78.0104 172.779 78.2685 172.357 78.4957C171.941 78.7183 171.377 78.8295 170.667 78.8295C169.786 78.8295 168.996 78.6212 168.295 78.2045C167.599 77.7879 167.047 77.1818 166.64 76.3864C166.238 75.5909 166.036 74.625 166.036 73.4886C166.036 72.3712 166.233 71.3982 166.626 70.5696C167.019 69.7363 167.566 69.0923 168.267 68.6378C168.967 68.1785 169.777 67.9489 170.695 67.9489C171.406 67.9489 171.969 68.0672 172.386 68.304C172.807 68.536 173.129 68.8011 173.352 69.0994C173.579 69.393 173.754 69.6345 173.877 69.8239H174.048V68.0909H175.667V79.3125C175.667 80.25 175.454 81.0123 175.028 81.5994C174.606 82.1913 174.038 82.6245 173.323 82.8991C172.613 83.1785 171.822 83.3182 170.951 83.3182ZM170.894 77.3239C171.567 77.3239 172.135 77.17 172.599 76.8622C173.063 76.5545 173.416 76.1117 173.657 75.5341C173.899 74.9564 174.019 74.2652 174.019 73.4602C174.019 72.6742 173.901 71.9806 173.664 71.3793C173.427 70.7779 173.077 70.3068 172.613 69.9659C172.149 69.625 171.576 69.4545 170.894 69.4545C170.184 69.4545 169.592 69.6345 169.119 69.9943C168.65 70.3542 168.297 70.8371 168.061 71.4432C167.829 72.0492 167.713 72.7216 167.713 73.4602C167.713 74.2178 167.831 74.8878 168.068 75.4702C168.309 76.0478 168.664 76.5024 169.133 76.8338C169.606 77.1605 170.194 77.3239 170.894 77.3239ZM180.411 72.4375V79H178.735V64.4545H180.411V69.7955H180.553C180.809 69.232 181.193 68.7846 181.704 68.4531C182.22 68.117 182.907 67.9489 183.764 67.9489C184.507 67.9489 185.158 68.098 185.717 68.3963C186.276 68.6899 186.709 69.142 187.017 69.7528C187.329 70.3589 187.485 71.1307 187.485 72.0682V79H185.809V72.1818C185.809 71.3153 185.584 70.6454 185.134 70.1719C184.689 69.6937 184.071 69.4545 183.281 69.4545C182.731 69.4545 182.239 69.5705 181.803 69.8026C181.373 70.0346 181.032 70.3731 180.781 70.8182C180.535 71.2633 180.411 71.803 180.411 72.4375ZM190.552 79V68.0909H192.171V69.7955H192.313C192.54 69.2131 192.907 68.7609 193.414 68.4389C193.921 68.1122 194.529 67.9489 195.239 67.9489C195.959 67.9489 196.558 68.1122 197.036 68.4389C197.519 68.7609 197.895 69.2131 198.165 69.7955H198.279C198.558 69.232 198.977 68.7846 199.536 68.4531C200.095 68.117 200.765 67.9489 201.546 67.9489C202.521 67.9489 203.319 68.2543 203.939 68.8651C204.56 69.4711 204.87 70.4157 204.87 71.6989V79H203.194V71.6989C203.194 70.8939 202.974 70.3187 202.533 69.973C202.093 69.6274 201.574 69.4545 200.978 69.4545C200.211 69.4545 199.617 69.6866 199.195 70.1506C198.774 70.6098 198.563 71.1922 198.563 71.8977V79H196.858V71.5284C196.858 70.9081 196.657 70.4086 196.255 70.0298C195.852 69.6463 195.334 69.4545 194.699 69.4545C194.264 69.4545 193.857 69.5705 193.478 69.8026C193.104 70.0346 192.801 70.3565 192.569 70.7685C192.341 71.1757 192.228 71.6468 192.228 72.1818V79H190.552ZM211.145 79.2557C210.453 79.2557 209.826 79.1255 209.263 78.8651C208.699 78.5999 208.252 78.2188 207.92 77.7216C207.589 77.2197 207.423 76.6136 207.423 75.9034C207.423 75.2784 207.546 74.7718 207.792 74.3835C208.039 73.9905 208.368 73.6828 208.78 73.4602C209.192 73.2377 209.646 73.072 210.143 72.9631C210.645 72.8494 211.149 72.7595 211.656 72.6932C212.319 72.608 212.856 72.544 213.268 72.5014C213.685 72.4541 213.988 72.3759 214.177 72.267C214.372 72.1581 214.469 71.9687 214.469 71.6989V71.642C214.469 70.9413 214.277 70.3968 213.893 70.0085C213.515 69.6203 212.939 69.4261 212.167 69.4261C211.367 69.4261 210.74 69.6013 210.285 69.9517C209.831 70.3021 209.511 70.6761 209.327 71.0739L207.736 70.5057C208.02 69.8428 208.398 69.3267 208.872 68.9574C209.35 68.5833 209.871 68.3229 210.434 68.1761C211.003 68.0246 211.561 67.9489 212.111 67.9489C212.461 67.9489 212.863 67.9915 213.318 68.0767C213.777 68.1572 214.22 68.3253 214.646 68.581C215.077 68.8366 215.434 69.2225 215.719 69.7386C216.003 70.2547 216.145 70.946 216.145 71.8125V79H214.469V77.5227H214.383C214.27 77.7595 214.08 78.0128 213.815 78.2827C213.55 78.5526 213.197 78.7822 212.757 78.9716C212.317 79.161 211.779 79.2557 211.145 79.2557ZM211.4 77.75C212.063 77.75 212.622 77.6198 213.077 77.3594C213.536 77.099 213.881 76.7628 214.113 76.3509C214.35 75.9389 214.469 75.5057 214.469 75.0511V73.517C214.398 73.6023 214.241 73.6804 214 73.7514C213.763 73.8177 213.488 73.8769 213.176 73.929C212.868 73.9763 212.568 74.0189 212.274 74.0568C211.985 74.09 211.751 74.1184 211.571 74.142C211.135 74.1989 210.728 74.2912 210.349 74.419C209.975 74.5421 209.672 74.7292 209.44 74.9801C209.213 75.2263 209.099 75.5625 209.099 75.9886C209.099 76.571 209.315 77.0114 209.746 77.3097C210.181 77.6032 210.733 77.75 211.4 77.75ZM226.931 70.5341L225.426 70.9602C225.331 70.7093 225.191 70.4654 225.007 70.2287C224.827 69.9872 224.58 69.7884 224.268 69.6321C223.955 69.4759 223.555 69.3977 223.068 69.3977C222.4 69.3977 221.844 69.5516 221.399 69.8594C220.958 70.1624 220.738 70.5483 220.738 71.017C220.738 71.4337 220.89 71.7628 221.193 72.0043C221.496 72.2457 221.969 72.447 222.613 72.608L224.232 73.0057C225.208 73.2424 225.935 73.6046 226.413 74.0923C226.891 74.5753 227.13 75.1979 227.13 75.9602C227.13 76.5852 226.95 77.1439 226.59 77.6364C226.235 78.1288 225.738 78.517 225.099 78.8011C224.46 79.0852 223.716 79.2273 222.869 79.2273C221.756 79.2273 220.835 78.9858 220.106 78.5028C219.377 78.0199 218.915 77.3144 218.721 76.3864L220.312 75.9886C220.463 76.5758 220.75 77.0161 221.171 77.3097C221.597 77.6032 222.154 77.75 222.84 77.75C223.622 77.75 224.242 77.5843 224.701 77.2528C225.165 76.9167 225.397 76.5142 225.397 76.0455C225.397 75.6667 225.265 75.3494 224.999 75.0938C224.734 74.8333 224.327 74.6392 223.778 74.5114L221.96 74.0852C220.961 73.8485 220.227 73.4815 219.758 72.9844C219.294 72.4825 219.062 71.8551 219.062 71.1023C219.062 70.4867 219.235 69.9422 219.58 69.4688C219.931 68.9953 220.407 68.6236 221.008 68.3537C221.614 68.0838 222.301 67.9489 223.068 67.9489C224.147 67.9489 224.995 68.1856 225.61 68.6591C226.231 69.1326 226.671 69.7576 226.931 70.5341ZM231.329 72.4375V79H229.653V64.4545H231.329V69.7955H231.471C231.727 69.232 232.111 68.7846 232.622 68.4531C233.138 68.117 233.825 67.9489 234.682 67.9489C235.425 67.9489 236.076 68.098 236.635 68.3963C237.193 68.6899 237.627 69.142 237.934 69.7528C238.247 70.3589 238.403 71.1307 238.403 72.0682V79H236.727V72.1818C236.727 71.3153 236.502 70.6454 236.052 70.1719C235.607 69.6937 234.989 69.4545 234.199 69.4545C233.649 69.4545 233.157 69.5705 232.721 69.8026C232.291 70.0346 231.95 70.3731 231.699 70.8182C231.452 71.2633 231.329 71.803 231.329 72.4375ZM246.044 79.2273C244.992 79.2273 244.086 78.9953 243.323 78.5312C242.566 78.0625 241.981 77.4091 241.569 76.571C241.162 75.7282 240.958 74.7481 240.958 73.6307C240.958 72.5133 241.162 71.5284 241.569 70.6761C241.981 69.8191 242.554 69.1515 243.288 68.6733C244.026 68.1903 244.888 67.9489 245.873 67.9489C246.441 67.9489 247.002 68.0436 247.556 68.233C248.11 68.4223 248.615 68.7301 249.069 69.1562C249.524 69.5777 249.886 70.1364 250.156 70.8324C250.426 71.5284 250.561 72.3854 250.561 73.4034V74.1136H242.151V72.6648H248.856C248.856 72.0492 248.733 71.5 248.487 71.017C248.245 70.5341 247.9 70.1529 247.45 69.8736C247.005 69.5942 246.479 69.4545 245.873 69.4545C245.205 69.4545 244.628 69.6203 244.14 69.9517C243.657 70.2784 243.285 70.7045 243.025 71.2301C242.765 71.7557 242.634 72.3191 242.634 72.9205V73.8864C242.634 74.7102 242.776 75.4086 243.061 75.9815C243.349 76.5497 243.749 76.983 244.261 77.2812C244.772 77.5748 245.366 77.7216 246.044 77.7216C246.484 77.7216 246.882 77.66 247.237 77.5369C247.597 77.4091 247.907 77.2197 248.167 76.9688C248.427 76.7131 248.629 76.3958 248.771 76.017L250.39 76.4716C250.22 77.0208 249.933 77.5038 249.531 77.9205C249.128 78.3324 248.631 78.6544 248.039 78.8864C247.447 79.1136 246.782 79.2273 246.044 79.2273ZM254.786 72.4375V79H253.11V68.0909H254.73V69.7955H254.872C255.127 69.2415 255.516 68.7964 256.036 68.4602C256.557 68.1193 257.23 67.9489 258.053 67.9489C258.792 67.9489 259.438 68.1004 259.992 68.4034C260.546 68.7017 260.977 69.1562 261.285 69.767C261.593 70.3731 261.747 71.1402 261.747 72.0682V79H260.07V72.1818C260.07 71.3248 259.848 70.6572 259.403 70.179C258.958 69.696 258.347 69.4545 257.57 69.4545C257.035 69.4545 256.557 69.5705 256.136 69.8026C255.719 70.0346 255.39 70.3731 255.149 70.8182C254.907 71.2633 254.786 71.803 254.786 72.4375ZM269.383 79.2273C268.332 79.2273 267.425 78.9953 266.663 78.5312C265.906 78.0625 265.321 77.4091 264.909 76.571C264.502 75.7282 264.298 74.7481 264.298 73.6307C264.298 72.5133 264.502 71.5284 264.909 70.6761C265.321 69.8191 265.894 69.1515 266.628 68.6733C267.366 68.1903 268.228 67.9489 269.213 67.9489C269.781 67.9489 270.342 68.0436 270.896 68.233C271.45 68.4223 271.954 68.7301 272.409 69.1562C272.863 69.5777 273.226 70.1364 273.496 70.8324C273.765 71.5284 273.9 72.3854 273.9 73.4034V74.1136H265.491V72.6648H272.196C272.196 72.0492 272.073 71.5 271.827 71.017C271.585 70.5341 271.239 70.1529 270.79 69.8736C270.345 69.5942 269.819 69.4545 269.213 69.4545C268.545 69.4545 267.968 69.6203 267.48 69.9517C266.997 70.2784 266.625 70.7045 266.365 71.2301C266.104 71.7557 265.974 72.3191 265.974 72.9205V73.8864C265.974 74.7102 266.116 75.4086 266.4 75.9815C266.689 76.5497 267.089 76.983 267.601 77.2812C268.112 77.5748 268.706 77.7216 269.383 77.7216C269.824 77.7216 270.221 77.66 270.577 77.5369C270.936 77.4091 271.247 77.2197 271.507 76.9688C271.767 76.7131 271.969 76.3958 272.111 76.017L273.73 76.4716C273.559 77.0208 273.273 77.5038 272.871 77.9205C272.468 78.3324 271.971 78.6544 271.379 78.8864C270.787 79.1136 270.122 79.2273 269.383 79.2273ZM276.677 79V64.4545H278.354V69.8239H278.496C278.619 69.6345 278.789 69.393 279.007 69.0994C279.229 68.8011 279.547 68.536 279.959 68.304C280.375 68.0672 280.939 67.9489 281.649 67.9489C282.568 67.9489 283.377 68.1785 284.078 68.6378C284.779 69.0971 285.326 69.7481 285.719 70.5909C286.112 71.4337 286.308 72.428 286.308 73.5739C286.308 74.7292 286.112 75.7306 285.719 76.5781C285.326 77.4209 284.781 78.0743 284.085 78.5384C283.389 78.9976 282.586 79.2273 281.677 79.2273C280.977 79.2273 280.416 79.1113 279.994 78.8793C279.573 78.6425 279.248 78.375 279.021 78.0767C278.794 77.7737 278.619 77.5227 278.496 77.3239H278.297V79H276.677ZM278.325 73.5455C278.325 74.3693 278.446 75.0961 278.687 75.7259C278.929 76.3509 279.282 76.8409 279.746 77.196C280.21 77.5464 280.778 77.7216 281.45 77.7216C282.151 77.7216 282.736 77.5369 283.204 77.1676C283.678 76.7936 284.033 76.2917 284.27 75.6619C284.511 75.0275 284.632 74.322 284.632 73.5455C284.632 72.7784 284.514 72.0871 284.277 71.4716C284.045 70.8513 283.692 70.3613 283.219 70.0014C282.75 69.6368 282.16 69.4545 281.45 69.4545C280.768 69.4545 280.195 69.6274 279.731 69.973C279.267 70.3139 278.917 70.7921 278.68 71.4077C278.443 72.0185 278.325 72.7311 278.325 73.5455ZM293.446 79.2273C292.395 79.2273 291.488 78.9953 290.726 78.5312C289.968 78.0625 289.383 77.4091 288.971 76.571C288.564 75.7282 288.361 74.7481 288.361 73.6307C288.361 72.5133 288.564 71.5284 288.971 70.6761C289.383 69.8191 289.956 69.1515 290.69 68.6733C291.429 68.1903 292.291 67.9489 293.275 67.9489C293.844 67.9489 294.405 68.0436 294.959 68.233C295.513 68.4223 296.017 68.7301 296.471 69.1562C296.926 69.5777 297.288 70.1364 297.558 70.8324C297.828 71.5284 297.963 72.3854 297.963 73.4034V74.1136H289.554V72.6648H296.258C296.258 72.0492 296.135 71.5 295.889 71.017C295.648 70.5341 295.302 70.1529 294.852 69.8736C294.407 69.5942 293.881 69.4545 293.275 69.4545C292.608 69.4545 292.03 69.6203 291.542 69.9517C291.059 70.2784 290.688 70.7045 290.427 71.2301C290.167 71.7557 290.037 72.3191 290.037 72.9205V73.8864C290.037 74.7102 290.179 75.4086 290.463 75.9815C290.752 76.5497 291.152 76.983 291.663 77.2812C292.175 77.5748 292.769 77.7216 293.446 77.7216C293.886 77.7216 294.284 77.66 294.639 77.5369C294.999 77.4091 295.309 77.2197 295.569 76.9688C295.83 76.7131 296.031 76.3958 296.173 76.017L297.792 76.4716C297.622 77.0208 297.336 77.5038 296.933 77.9205C296.531 78.3324 296.033 78.6544 295.442 78.8864C294.85 79.1136 294.184 79.2273 293.446 79.2273ZM302.189 64.4545V79H300.513V64.4545H302.189ZM305.259 79V68.0909H306.935V79H305.259ZM306.111 66.2727C305.784 66.2727 305.503 66.1615 305.266 65.9389C305.034 65.7164 304.918 65.4489 304.918 65.1364C304.918 64.8239 305.034 64.5563 305.266 64.3338C305.503 64.1113 305.784 64 306.111 64C306.438 64 306.717 64.1113 306.949 64.3338C307.186 64.5563 307.304 64.8239 307.304 65.1364C307.304 65.4489 307.186 65.7164 306.949 65.9389C306.717 66.1615 306.438 66.2727 306.111 66.2727ZM316.454 79H314.607L319.948 64.4545H321.766L327.107 79H325.26L320.914 66.7557H320.8L316.454 79ZM317.135 73.3182H324.579V74.8807H317.135V73.3182ZM330.822 64.4545V79H329.145V64.4545H330.822ZM335.568 64.4545V79H333.892V64.4545H335.568ZM343.211 79.2273C342.16 79.2273 341.254 78.9953 340.491 78.5312C339.734 78.0625 339.149 77.4091 338.737 76.571C338.33 75.7282 338.126 74.7481 338.126 73.6307C338.126 72.5133 338.33 71.5284 338.737 70.6761C339.149 69.8191 339.722 69.1515 340.456 68.6733C341.194 68.1903 342.056 67.9489 343.041 67.9489C343.609 67.9489 344.17 68.0436 344.724 68.233C345.278 68.4223 345.782 68.7301 346.237 69.1562C346.692 69.5777 347.054 70.1364 347.324 70.8324C347.594 71.5284 347.729 72.3854 347.729 73.4034V74.1136H339.319V72.6648H346.024C346.024 72.0492 345.901 71.5 345.655 71.017C345.413 70.5341 345.068 70.1529 344.618 69.8736C344.173 69.5942 343.647 69.4545 343.041 69.4545C342.373 69.4545 341.796 69.6203 341.308 69.9517C340.825 70.2784 340.453 70.7045 340.193 71.2301C339.933 71.7557 339.802 72.3191 339.802 72.9205V73.8864C339.802 74.7102 339.944 75.4086 340.229 75.9815C340.517 76.5497 340.917 76.983 341.429 77.2812C341.94 77.5748 342.534 77.7216 343.211 77.7216C343.652 77.7216 344.05 77.66 344.405 77.5369C344.765 77.4091 345.075 77.2197 345.335 76.9688C345.595 76.7131 345.797 76.3958 345.939 76.017L347.558 76.4716C347.388 77.0208 347.101 77.5038 346.699 77.9205C346.296 78.3324 345.799 78.6544 345.207 78.8864C344.615 79.1136 343.95 79.2273 343.211 79.2273ZM351.026 83.0909C350.742 83.0909 350.488 83.0672 350.266 83.0199C350.043 82.9773 349.889 82.9347 349.804 82.892L350.23 81.4148C350.637 81.5189 350.997 81.5568 351.31 81.5284C351.622 81.5 351.899 81.3603 352.141 81.1094C352.387 80.8632 352.612 80.4631 352.816 79.9091L353.128 79.0568L349.094 68.0909H350.912L353.923 76.7841H354.037L357.048 68.0909H358.867L354.236 80.5909C354.028 81.1544 353.77 81.6207 353.462 81.9901C353.154 82.3641 352.797 82.6411 352.389 82.821C351.987 83.0009 351.532 83.0909 351.026 83.0909ZM371.789 64.4545V79H370.028V66.3011H369.943L366.392 68.6591V66.8693L370.028 64.4545H371.789ZM380.802 79.1989C380.205 79.1894 379.609 79.0758 379.012 78.858C378.416 78.6402 377.871 78.2732 377.379 77.7571C376.886 77.2363 376.491 76.5331 376.193 75.6477C375.894 74.7576 375.745 73.6402 375.745 72.2955C375.745 71.0076 375.866 69.8665 376.107 68.8722C376.349 67.8731 376.699 67.0327 377.159 66.3509C377.618 65.6643 378.172 65.1435 378.82 64.7884C379.474 64.4332 380.21 64.2557 381.029 64.2557C381.844 64.2557 382.568 64.419 383.203 64.7457C383.842 65.0677 384.363 65.5175 384.765 66.0952C385.168 66.6728 385.428 67.3381 385.546 68.0909H383.813C383.652 67.4375 383.34 66.8954 382.876 66.4645C382.412 66.0336 381.796 65.8182 381.029 65.8182C379.902 65.8182 379.015 66.3082 378.366 67.2884C377.722 68.2685 377.398 69.6439 377.393 71.4148H377.507C377.772 71.0123 378.087 70.669 378.451 70.3849C378.82 70.0961 379.228 69.8736 379.673 69.7173C380.118 69.5611 380.589 69.483 381.086 69.483C381.919 69.483 382.682 69.6913 383.373 70.108C384.064 70.5199 384.618 71.0904 385.035 71.8196C385.452 72.544 385.66 73.375 385.66 74.3125C385.66 75.2121 385.459 76.036 385.056 76.7841C384.654 77.5275 384.088 78.1193 383.359 78.5597C382.634 78.9953 381.782 79.2083 380.802 79.1989ZM380.802 77.6364C381.399 77.6364 381.934 77.4872 382.407 77.1889C382.885 76.8906 383.262 76.4905 383.536 75.9886C383.816 75.4867 383.955 74.928 383.955 74.3125C383.955 73.7112 383.82 73.1643 383.551 72.6719C383.285 72.1747 382.919 71.7794 382.45 71.4858C381.986 71.1922 381.455 71.0455 380.859 71.0455C380.409 71.0455 379.99 71.1354 379.602 71.3153C379.213 71.4905 378.873 71.732 378.579 72.0398C378.29 72.3475 378.063 72.7003 377.897 73.098C377.731 73.491 377.649 73.9053 377.649 74.3409C377.649 74.9186 377.784 75.4583 378.053 75.9602C378.328 76.4621 378.702 76.867 379.176 77.1747C379.654 77.4825 380.196 77.6364 380.802 77.6364ZM393.368 79.1989C392.43 79.1989 391.595 79.0379 390.861 78.7159C390.131 78.3939 389.551 77.9465 389.121 77.3736C388.694 76.7959 388.462 76.1259 388.425 75.3636H390.214C390.252 75.8324 390.413 76.2372 390.697 76.5781C390.981 76.9143 391.353 77.1747 391.812 77.3594C392.272 77.544 392.781 77.6364 393.339 77.6364C393.964 77.6364 394.518 77.5275 395.001 77.3097C395.484 77.0919 395.863 76.7888 396.138 76.4006C396.412 76.0123 396.55 75.5625 396.55 75.0511C396.55 74.5161 396.417 74.045 396.152 73.6378C395.887 73.2259 395.498 72.9039 394.987 72.6719C394.476 72.4399 393.851 72.3239 393.112 72.3239H391.947V70.7614H393.112C393.69 70.7614 394.196 70.6572 394.632 70.4489C395.072 70.2405 395.416 69.947 395.662 69.5682C395.913 69.1894 396.038 68.7443 396.038 68.233C396.038 67.7405 395.929 67.312 395.711 66.9474C395.494 66.5829 395.186 66.2988 394.788 66.0952C394.395 65.8916 393.931 65.7898 393.396 65.7898C392.894 65.7898 392.421 65.8821 391.976 66.0668C391.535 66.2467 391.175 66.5095 390.896 66.8551C390.617 67.196 390.465 67.608 390.442 68.0909H388.737C388.765 67.3286 388.995 66.661 389.426 66.0881C389.857 65.5104 390.42 65.0606 391.116 64.7386C391.817 64.4167 392.586 64.2557 393.425 64.2557C394.324 64.2557 395.096 64.438 395.74 64.8026C396.384 65.1624 396.879 65.6383 397.224 66.2301C397.57 66.822 397.743 67.4612 397.743 68.1477C397.743 68.9669 397.527 69.6652 397.096 70.2429C396.67 70.8205 396.09 71.2206 395.356 71.4432V71.5568C396.275 71.7083 396.992 72.099 397.508 72.7287C398.024 73.3537 398.282 74.1278 398.282 75.0511C398.282 75.8419 398.067 76.5521 397.636 77.1818C397.21 77.8068 396.628 78.2992 395.889 78.6591C395.15 79.0189 394.31 79.1989 393.368 79.1989Z" fill="black"/>
<path d="M1.39364 106.017V104.455H12.3027V106.017H7.72887V119H5.96751V106.017H1.39364ZM17.7857 119.227C16.7346 119.227 15.8278 118.995 15.0655 118.531C14.3079 118.062 13.7232 117.409 13.3113 116.571C12.9041 115.728 12.7005 114.748 12.7005 113.631C12.7005 112.513 12.9041 111.528 13.3113 110.676C13.7232 109.819 14.2961 109.152 15.03 108.673C15.7686 108.19 16.6304 107.949 17.6152 107.949C18.1834 107.949 18.7445 108.044 19.2985 108.233C19.8525 108.422 20.3567 108.73 20.8113 109.156C21.2658 109.578 21.628 110.136 21.8979 110.832C22.1678 111.528 22.3027 112.385 22.3027 113.403V114.114H13.8936V112.665H20.5982C20.5982 112.049 20.4751 111.5 20.2289 111.017C19.9874 110.534 19.6417 110.153 19.1919 109.874C18.7469 109.594 18.2213 109.455 17.6152 109.455C16.9476 109.455 16.37 109.62 15.8823 109.952C15.3993 110.278 15.0276 110.705 14.7672 111.23C14.5068 111.756 14.3766 112.319 14.3766 112.92V113.886C14.3766 114.71 14.5186 115.409 14.8027 115.982C15.0916 116.55 15.4917 116.983 16.003 117.281C16.5144 117.575 17.1086 117.722 17.7857 117.722C18.226 117.722 18.6238 117.66 18.9789 117.537C19.3387 117.409 19.6489 117.22 19.9093 116.969C20.1697 116.713 20.3709 116.396 20.513 116.017L22.1323 116.472C21.9618 117.021 21.6754 117.504 21.2729 117.92C20.8704 118.332 20.3733 118.654 19.7814 118.886C19.1896 119.114 18.5243 119.227 17.7857 119.227ZM26.5286 104.455V119H24.8525V104.455H26.5286ZM30.8201 119.114C30.4698 119.114 30.1691 118.988 29.9181 118.737C29.6672 118.486 29.5417 118.186 29.5417 117.835C29.5417 117.485 29.6672 117.184 29.9181 116.933C30.1691 116.682 30.4698 116.557 30.8201 116.557C31.1705 116.557 31.4712 116.682 31.7221 116.933C31.9731 117.184 32.0985 117.485 32.0985 117.835C32.0985 118.067 32.0394 118.28 31.921 118.474C31.8074 118.669 31.6535 118.825 31.4593 118.943C31.2699 119.057 31.0569 119.114 30.8201 119.114ZM30.8201 111.017C30.4698 111.017 30.1691 110.892 29.9181 110.641C29.6672 110.39 29.5417 110.089 29.5417 109.739C29.5417 109.388 29.6672 109.088 29.9181 108.837C30.1691 108.586 30.4698 108.46 30.8201 108.46C31.1705 108.46 31.4712 108.586 31.7221 108.837C31.9731 109.088 32.0985 109.388 32.0985 109.739C32.0985 109.971 32.0394 110.184 31.921 110.378C31.8074 110.572 31.6535 110.728 31.4593 110.847C31.2699 110.96 31.0569 111.017 30.8201 111.017Z" fill="#C0F6EF"/>
<path d="M47.9517 116.443V107.068H49.5426V116.443H47.9517ZM44.0597 112.551V110.96H53.4347V112.551H44.0597ZM61.4762 104.256C62.0728 104.26 62.6694 104.374 63.266 104.597C63.8626 104.819 64.4071 105.188 64.8995 105.705C65.3919 106.216 65.7873 106.914 66.0856 107.8C66.3839 108.685 66.533 109.795 66.533 111.131C66.533 112.423 66.4099 113.571 66.1637 114.575C65.9222 115.574 65.5719 116.417 65.1126 117.104C64.658 117.79 64.104 118.311 63.4506 118.666C62.802 119.021 62.0681 119.199 61.2489 119.199C60.4345 119.199 59.7077 119.038 59.0685 118.716C58.4341 118.389 57.9132 117.937 57.506 117.359C57.1036 116.777 56.8455 116.102 56.7319 115.335H58.4648C58.6211 116.003 58.9312 116.554 59.3952 116.99C59.864 117.421 60.4819 117.636 61.2489 117.636C62.3711 117.636 63.2565 117.146 63.9052 116.166C64.5586 115.186 64.8853 113.801 64.8853 112.011H64.7717C64.5065 112.409 64.1916 112.752 63.8271 113.041C63.4625 113.33 63.0576 113.553 62.6126 113.709C62.1675 113.865 61.694 113.943 61.1921 113.943C60.3588 113.943 59.5941 113.737 58.8981 113.325C58.2068 112.909 57.6528 112.338 57.2362 111.614C56.8242 110.884 56.6183 110.051 56.6183 109.114C56.6183 108.223 56.8171 107.409 57.2148 106.67C57.6173 105.927 58.1808 105.335 58.9052 104.895C59.6344 104.455 60.4914 104.241 61.4762 104.256ZM61.4762 105.818C60.8796 105.818 60.3422 105.967 59.864 106.266C59.3905 106.559 59.0141 106.957 58.7347 107.459C58.4601 107.956 58.3228 108.508 58.3228 109.114C58.3228 109.72 58.4554 110.271 58.7205 110.768C58.9904 111.261 59.3574 111.654 59.8214 111.947C60.2901 112.236 60.8228 112.381 61.4194 112.381C61.8692 112.381 62.2882 112.293 62.6765 112.118C63.0647 111.938 63.4033 111.694 63.6921 111.386C63.9857 111.074 64.2153 110.721 64.381 110.328C64.5468 109.93 64.6296 109.516 64.6296 109.085C64.6296 108.517 64.4923 107.984 64.2177 107.487C63.9478 106.99 63.5737 106.588 63.0955 106.28C62.622 105.972 62.0823 105.818 61.4762 105.818ZM73.9567 104.256C74.5533 104.26 75.1499 104.374 75.7464 104.597C76.343 104.819 76.8875 105.188 77.38 105.705C77.8724 106.216 78.2678 106.914 78.5661 107.8C78.8643 108.685 79.0135 109.795 79.0135 111.131C79.0135 112.423 78.8904 113.571 78.6442 114.575C78.4027 115.574 78.0523 116.417 77.593 117.104C77.1385 117.79 76.5845 118.311 75.9311 118.666C75.2824 119.021 74.5485 119.199 73.7294 119.199C72.915 119.199 72.1882 119.038 71.549 118.716C70.9145 118.389 70.3937 117.937 69.9865 117.359C69.584 116.777 69.326 116.102 69.2124 115.335H70.9453C71.1016 116.003 71.4117 116.554 71.8757 116.99C72.3445 117.421 72.9624 117.636 73.7294 117.636C74.8516 117.636 75.737 117.146 76.3857 116.166C77.0391 115.186 77.3658 113.801 77.3658 112.011H77.2521C76.987 112.409 76.6721 112.752 76.3075 113.041C75.9429 113.33 75.5381 113.553 75.093 113.709C74.648 113.865 74.1745 113.943 73.6726 113.943C72.8393 113.943 72.0746 113.737 71.3786 113.325C70.6873 112.909 70.1333 112.338 69.7166 111.614C69.3047 110.884 69.0987 110.051 69.0987 109.114C69.0987 108.223 69.2976 107.409 69.6953 106.67C70.0978 105.927 70.6612 105.335 71.3857 104.895C72.1148 104.455 72.9718 104.241 73.9567 104.256ZM73.9567 105.818C73.3601 105.818 72.8227 105.967 72.3445 106.266C71.871 106.559 71.4946 106.957 71.2152 107.459C70.9406 107.956 70.8033 108.508 70.8033 109.114C70.8033 109.72 70.9358 110.271 71.201 110.768C71.4709 111.261 71.8378 111.654 72.3018 111.947C72.7706 112.236 73.3033 112.381 73.8999 112.381C74.3497 112.381 74.7687 112.293 75.157 112.118C75.5452 111.938 75.8838 111.694 76.1726 111.386C76.4661 111.074 76.6958 110.721 76.8615 110.328C77.0272 109.93 77.1101 109.516 77.1101 109.085C77.1101 108.517 76.9728 107.984 76.6982 107.487C76.4283 106.99 76.0542 106.588 75.576 106.28C75.1025 105.972 74.5627 105.818 73.9567 105.818ZM86.3519 119.199C85.5186 119.199 84.7681 119.033 84.1005 118.702C83.4329 118.37 82.8978 117.916 82.4954 117.338C82.0929 116.76 81.8728 116.102 81.8349 115.364H83.5394C83.6057 116.022 83.904 116.566 84.4343 116.997C84.9693 117.423 85.6085 117.636 86.3519 117.636C86.9485 117.636 87.4788 117.497 87.9428 117.217C88.4116 116.938 88.7785 116.554 89.0437 116.067C89.3136 115.574 89.4485 115.018 89.4485 114.398C89.4485 113.763 89.3088 113.197 89.0295 112.7C88.7549 112.198 88.3761 111.803 87.8931 111.514C87.4102 111.225 86.8585 111.079 86.2383 111.074C85.7932 111.069 85.3363 111.138 84.8675 111.28C84.3988 111.417 84.0129 111.595 83.7099 111.812L82.0621 111.614L82.9428 104.455H90.4996V106.017H84.4201L83.9087 110.307H83.994C84.2923 110.07 84.6663 109.874 85.1161 109.717C85.5659 109.561 86.0347 109.483 86.5224 109.483C87.4125 109.483 88.2056 109.696 88.9016 110.122C89.6024 110.544 90.1516 111.121 90.5494 111.855C90.9518 112.589 91.1531 113.427 91.1531 114.369C91.1531 115.297 90.9447 116.126 90.5281 116.855C90.1161 117.58 89.5479 118.152 88.8235 118.574C88.0991 118.991 87.2752 119.199 86.3519 119.199ZM104.514 119.199C103.577 119.199 102.741 119.038 102.007 118.716C101.278 118.394 100.698 117.946 100.267 117.374C99.8409 116.796 99.6089 116.126 99.571 115.364H101.361C101.399 115.832 101.56 116.237 101.844 116.578C102.128 116.914 102.5 117.175 102.959 117.359C103.418 117.544 103.927 117.636 104.486 117.636C105.111 117.636 105.665 117.527 106.148 117.31C106.631 117.092 107.009 116.789 107.284 116.401C107.559 116.012 107.696 115.562 107.696 115.051C107.696 114.516 107.563 114.045 107.298 113.638C107.033 113.226 106.645 112.904 106.134 112.672C105.622 112.44 104.997 112.324 104.259 112.324H103.094V110.761H104.259C104.836 110.761 105.343 110.657 105.778 110.449C106.219 110.241 106.562 109.947 106.808 109.568C107.059 109.189 107.185 108.744 107.185 108.233C107.185 107.741 107.076 107.312 106.858 106.947C106.64 106.583 106.332 106.299 105.935 106.095C105.542 105.892 105.078 105.79 104.543 105.79C104.041 105.79 103.567 105.882 103.122 106.067C102.682 106.247 102.322 106.509 102.043 106.855C101.763 107.196 101.612 107.608 101.588 108.091H99.8835C99.9119 107.329 100.142 106.661 100.572 106.088C101.003 105.51 101.567 105.061 102.263 104.739C102.964 104.417 103.733 104.256 104.571 104.256C105.471 104.256 106.242 104.438 106.886 104.803C107.53 105.162 108.025 105.638 108.371 106.23C108.716 106.822 108.889 107.461 108.889 108.148C108.889 108.967 108.674 109.665 108.243 110.243C107.817 110.821 107.237 111.221 106.503 111.443V111.557C107.421 111.708 108.139 112.099 108.655 112.729C109.171 113.354 109.429 114.128 109.429 115.051C109.429 115.842 109.214 116.552 108.783 117.182C108.357 117.807 107.774 118.299 107.036 118.659C106.297 119.019 105.456 119.199 104.514 119.199ZM112.334 119V117.722L117.135 112.466C117.698 111.85 118.162 111.315 118.527 110.861C118.892 110.402 119.161 109.971 119.337 109.568C119.517 109.161 119.607 108.735 119.607 108.29C119.607 107.778 119.483 107.336 119.237 106.962C118.996 106.588 118.664 106.299 118.243 106.095C117.821 105.892 117.348 105.79 116.822 105.79C116.264 105.79 115.776 105.906 115.359 106.138C114.947 106.365 114.628 106.685 114.401 107.097C114.178 107.509 114.067 107.991 114.067 108.545H112.391C112.391 107.693 112.587 106.945 112.98 106.301C113.373 105.657 113.908 105.155 114.585 104.795C115.267 104.436 116.032 104.256 116.879 104.256C117.732 104.256 118.487 104.436 119.145 104.795C119.803 105.155 120.319 105.641 120.693 106.251C121.067 106.862 121.254 107.542 121.254 108.29C121.254 108.825 121.157 109.348 120.963 109.859C120.774 110.366 120.442 110.932 119.969 111.557C119.5 112.177 118.849 112.935 118.016 113.83L114.749 117.324V117.438H121.51V119H112.334ZM130.068 119V117.722L134.869 112.466C135.433 111.85 135.897 111.315 136.261 110.861C136.626 110.402 136.896 109.971 137.071 109.568C137.251 109.161 137.341 108.735 137.341 108.29C137.341 107.778 137.218 107.336 136.972 106.962C136.73 106.588 136.399 106.299 135.977 106.095C135.556 105.892 135.082 105.79 134.557 105.79C133.998 105.79 133.51 105.906 133.094 106.138C132.682 106.365 132.362 106.685 132.135 107.097C131.912 107.509 131.801 107.991 131.801 108.545H130.125C130.125 107.693 130.321 106.945 130.714 106.301C131.107 105.657 131.643 105.155 132.32 104.795C133.001 104.436 133.766 104.256 134.614 104.256C135.466 104.256 136.221 104.436 136.879 104.795C137.537 105.155 138.054 105.641 138.428 106.251C138.802 106.862 138.989 107.542 138.989 108.29C138.989 108.825 138.892 109.348 138.697 109.859C138.508 110.366 138.177 110.932 137.703 111.557C137.234 112.177 136.583 112.935 135.75 113.83L132.483 117.324V117.438H139.244V119H130.068ZM142.178 119V117.722L146.979 112.466C147.542 111.85 148.006 111.315 148.371 110.861C148.735 110.402 149.005 109.971 149.18 109.568C149.36 109.161 149.45 108.735 149.45 108.29C149.45 107.778 149.327 107.336 149.081 106.962C148.839 106.588 148.508 106.299 148.087 106.095C147.665 105.892 147.192 105.79 146.666 105.79C146.107 105.79 145.62 105.906 145.203 106.138C144.791 106.365 144.472 106.685 144.244 107.097C144.022 107.509 143.911 107.991 143.911 108.545H142.234C142.234 107.693 142.431 106.945 142.824 106.301C143.217 105.657 143.752 105.155 144.429 104.795C145.111 104.436 145.875 104.256 146.723 104.256C147.575 104.256 148.33 104.436 148.989 104.795C149.647 105.155 150.163 105.641 150.537 106.251C150.911 106.862 151.098 107.542 151.098 108.29C151.098 108.825 151.001 109.348 150.807 109.859C150.617 110.366 150.286 110.932 149.812 111.557C149.344 112.177 148.693 112.935 147.859 113.83L144.592 117.324V117.438H151.354V119H142.178ZM154.287 119V117.722L159.088 112.466C159.652 111.85 160.116 111.315 160.48 110.861C160.845 110.402 161.115 109.971 161.29 109.568C161.47 109.161 161.56 108.735 161.56 108.29C161.56 107.778 161.437 107.336 161.19 106.962C160.949 106.588 160.617 106.299 160.196 106.095C159.775 105.892 159.301 105.79 158.776 105.79C158.217 105.79 157.729 105.906 157.312 106.138C156.901 106.365 156.581 106.685 156.354 107.097C156.131 107.509 156.02 107.991 156.02 108.545H154.344C154.344 107.693 154.54 106.945 154.933 106.301C155.326 105.657 155.861 105.155 156.538 104.795C157.22 104.436 157.985 104.256 158.832 104.256C159.685 104.256 160.44 104.436 161.098 104.795C161.756 105.155 162.272 105.641 162.646 106.251C163.02 106.862 163.207 107.542 163.207 108.29C163.207 108.825 163.11 109.348 162.916 109.859C162.727 110.366 162.395 110.932 161.922 111.557C161.453 112.177 160.802 112.935 159.969 113.83L156.702 117.324V117.438H163.463V119H154.287ZM172.021 119V117.722L176.822 112.466C177.386 111.85 177.85 111.315 178.214 110.861C178.579 110.402 178.849 109.971 179.024 109.568C179.204 109.161 179.294 108.735 179.294 108.29C179.294 107.778 179.171 107.336 178.925 106.962C178.683 106.588 178.352 106.299 177.93 106.095C177.509 105.892 177.036 105.79 176.51 105.79C175.951 105.79 175.464 105.906 175.047 106.138C174.635 106.365 174.315 106.685 174.088 107.097C173.866 107.509 173.754 107.991 173.754 108.545H172.078C172.078 107.693 172.275 106.945 172.668 106.301C173.061 105.657 173.596 105.155 174.273 104.795C174.955 104.436 175.719 104.256 176.567 104.256C177.419 104.256 178.174 104.436 178.832 104.795C179.491 105.155 180.007 105.641 180.381 106.251C180.755 106.862 180.942 107.542 180.942 108.29C180.942 108.825 180.845 109.348 180.651 109.859C180.461 110.366 180.13 110.932 179.656 111.557C179.188 112.177 178.536 112.935 177.703 113.83L174.436 117.324V117.438H181.197V119H172.021ZM184.131 119V117.722L188.932 112.466C189.495 111.85 189.959 111.315 190.324 110.861C190.688 110.402 190.958 109.971 191.134 109.568C191.313 109.161 191.403 108.735 191.403 108.29C191.403 107.778 191.28 107.336 191.034 106.962C190.793 106.588 190.461 106.299 190.04 106.095C189.618 105.892 189.145 105.79 188.619 105.79C188.061 105.79 187.573 105.906 187.156 106.138C186.744 106.365 186.425 106.685 186.197 107.097C185.975 107.509 185.864 107.991 185.864 108.545H184.188C184.188 107.693 184.384 106.945 184.777 106.301C185.17 105.657 185.705 105.155 186.382 104.795C187.064 104.436 187.829 104.256 188.676 104.256C189.528 104.256 190.284 104.436 190.942 104.795C191.6 105.155 192.116 105.641 192.49 106.251C192.864 106.862 193.051 107.542 193.051 108.29C193.051 108.825 192.954 109.348 192.76 109.859C192.571 110.366 192.239 110.932 191.766 111.557C191.297 112.177 190.646 112.935 189.812 113.83L186.545 117.324V117.438H193.307V119H184.131ZM196.24 119V117.722L201.041 112.466C201.605 111.85 202.069 111.315 202.433 110.861C202.798 110.402 203.068 109.971 203.243 109.568C203.423 109.161 203.513 108.735 203.513 108.29C203.513 107.778 203.39 107.336 203.143 106.962C202.902 106.588 202.571 106.299 202.149 106.095C201.728 105.892 201.254 105.79 200.729 105.79C200.17 105.79 199.682 105.906 199.266 106.138C198.854 106.365 198.534 106.685 198.307 107.097C198.084 107.509 197.973 107.991 197.973 108.545H196.297C196.297 107.693 196.493 106.945 196.886 106.301C197.279 105.657 197.814 105.155 198.491 104.795C199.173 104.436 199.938 104.256 200.786 104.256C201.638 104.256 202.393 104.436 203.051 104.795C203.709 105.155 204.225 105.641 204.599 106.251C204.973 106.862 205.161 107.542 205.161 108.29C205.161 108.825 205.063 109.348 204.869 109.859C204.68 110.366 204.348 110.932 203.875 111.557C203.406 112.177 202.755 112.935 201.922 113.83L198.655 117.324V117.438H205.416V119H196.24Z" fill="black"/>
<path d="M1.95863 159V144.455H10.737V146.017H3.71999V150.932H10.2825V152.494H3.71999V157.438H10.8507V159H1.95863ZM13.6845 159V148.091H15.3038V149.795H15.4458C15.6731 149.213 16.0401 148.761 16.5467 148.439C17.0533 148.112 17.6618 147.949 18.372 147.949C19.0917 147.949 19.6906 148.112 20.1689 148.439C20.6518 148.761 21.0282 149.213 21.2981 149.795H21.4118C21.6911 149.232 22.1101 148.785 22.6689 148.453C23.2276 148.117 23.8976 147.949 24.6788 147.949C25.6542 147.949 26.452 148.254 27.0723 148.865C27.6925 149.471 28.0027 150.416 28.0027 151.699V159H26.3265V151.699C26.3265 150.894 26.1064 150.319 25.666 149.973C25.2257 149.627 24.7072 149.455 24.1106 149.455C23.3436 149.455 22.7493 149.687 22.3279 150.151C21.9065 150.61 21.6958 151.192 21.6958 151.898V159H19.9913V151.528C19.9913 150.908 19.7901 150.409 19.3876 150.03C18.9851 149.646 18.4667 149.455 17.8322 149.455C17.3966 149.455 16.9894 149.571 16.6106 149.803C16.2366 150.035 15.9335 150.357 15.7015 150.768C15.4743 151.176 15.3606 151.647 15.3606 152.182V159H13.6845ZM34.2775 159.256C33.5862 159.256 32.9589 159.125 32.3954 158.865C31.832 158.6 31.3845 158.219 31.0531 157.722C30.7217 157.22 30.5559 156.614 30.5559 155.903C30.5559 155.278 30.679 154.772 30.9252 154.384C31.1715 153.991 31.5005 153.683 31.9125 153.46C32.3244 153.238 32.7789 153.072 33.2761 152.963C33.778 152.849 34.2823 152.759 34.7889 152.693C35.4518 152.608 35.9892 152.544 36.4011 152.501C36.8178 152.454 37.1208 152.376 37.3102 152.267C37.5043 152.158 37.6014 151.969 37.6014 151.699V151.642C37.6014 150.941 37.4096 150.397 37.0261 150.009C36.6473 149.62 36.072 149.426 35.3002 149.426C34.5001 149.426 33.8727 149.601 33.4181 149.952C32.9636 150.302 32.644 150.676 32.4593 151.074L30.8684 150.506C31.1525 149.843 31.5313 149.327 32.0048 148.957C32.483 148.583 33.0038 148.323 33.5673 148.176C34.1355 148.025 34.6942 147.949 35.2434 147.949C35.5938 147.949 35.9963 147.991 36.4508 148.077C36.9101 148.157 37.3528 148.325 37.7789 148.581C38.2098 148.837 38.5673 149.223 38.8514 149.739C39.1355 150.255 39.2775 150.946 39.2775 151.812V159H37.6014V157.523H37.5162C37.4025 157.759 37.2131 158.013 36.948 158.283C36.6828 158.553 36.3301 158.782 35.8897 158.972C35.4494 159.161 34.912 159.256 34.2775 159.256ZM34.5332 157.75C35.1961 157.75 35.7548 157.62 36.2093 157.359C36.6686 157.099 37.0143 156.763 37.2463 156.351C37.483 155.939 37.6014 155.506 37.6014 155.051V153.517C37.5304 153.602 37.3741 153.68 37.1326 153.751C36.8959 153.818 36.6213 153.877 36.3088 153.929C36.001 153.976 35.7003 154.019 35.4068 154.057C35.118 154.09 34.8836 154.118 34.7037 154.142C34.2681 154.199 33.8609 154.291 33.4821 154.419C33.108 154.542 32.805 154.729 32.573 154.98C32.3457 155.226 32.2321 155.562 32.2321 155.989C32.2321 156.571 32.4475 157.011 32.8784 157.31C33.314 157.603 33.8656 157.75 34.5332 157.75ZM42.3368 159V148.091H44.013V159H42.3368ZM43.1891 146.273C42.8624 146.273 42.5807 146.161 42.3439 145.939C42.1119 145.716 41.9959 145.449 41.9959 145.136C41.9959 144.824 42.1119 144.556 42.3439 144.334C42.5807 144.111 42.8624 144 43.1891 144C43.5158 144 43.7952 144.111 44.0272 144.334C44.2639 144.556 44.3823 144.824 44.3823 145.136C44.3823 145.449 44.2639 145.716 44.0272 145.939C43.7952 146.161 43.5158 146.273 43.1891 146.273ZM48.7591 144.455V159H47.0829V144.455H48.7591ZM53.0506 159.114C52.7002 159.114 52.3996 158.988 52.1486 158.737C51.8977 158.486 51.7722 158.186 51.7722 157.835C51.7722 157.485 51.8977 157.184 52.1486 156.933C52.3996 156.682 52.7002 156.557 53.0506 156.557C53.401 156.557 53.7016 156.682 53.9526 156.933C54.2035 157.184 54.329 157.485 54.329 157.835C54.329 158.067 54.2698 158.28 54.1515 158.474C54.0378 158.669 53.8839 158.825 53.6898 158.943C53.5004 159.057 53.2873 159.114 53.0506 159.114ZM53.0506 151.017C52.7002 151.017 52.3996 150.892 52.1486 150.641C51.8977 150.39 51.7722 150.089 51.7722 149.739C51.7722 149.388 51.8977 149.088 52.1486 148.837C52.3996 148.586 52.7002 148.46 53.0506 148.46C53.401 148.46 53.7016 148.586 53.9526 148.837C54.2035 149.088 54.329 149.388 54.329 149.739C54.329 149.971 54.2698 150.184 54.1515 150.378C54.0378 150.572 53.8839 150.728 53.6898 150.847C53.5004 150.96 53.2873 151.017 53.0506 151.017Z" fill="#C0F6EF"/>
<path d="M70.1373 159.227C69.0861 159.227 68.1794 158.995 67.4171 158.531C66.6595 158.062 66.0748 157.409 65.6628 156.571C65.2556 155.728 65.052 154.748 65.052 153.631C65.052 152.513 65.2556 151.528 65.6628 150.676C66.0748 149.819 66.6477 149.152 67.3816 148.673C68.1202 148.19 68.9819 147.949 69.9668 147.949C70.535 147.949 71.0961 148.044 71.65 148.233C72.204 148.422 72.7083 148.73 73.1628 149.156C73.6174 149.578 73.9796 150.136 74.2495 150.832C74.5194 151.528 74.6543 152.385 74.6543 153.403V154.114H66.2452V152.665H72.9498C72.9498 152.049 72.8266 151.5 72.5804 151.017C72.339 150.534 71.9933 150.153 71.5435 149.874C71.0984 149.594 70.5729 149.455 69.9668 149.455C69.2992 149.455 68.7215 149.62 68.2338 149.952C67.7509 150.278 67.3792 150.705 67.1188 151.23C66.8584 151.756 66.7282 152.319 66.7282 152.92V153.886C66.7282 154.71 66.8702 155.409 67.1543 155.982C67.4431 156.55 67.8432 156.983 68.3546 157.281C68.8659 157.575 69.4602 157.722 70.1373 157.722C70.5776 157.722 70.9753 157.66 71.3304 157.537C71.6903 157.409 72.0004 157.22 72.2608 156.969C72.5212 156.713 72.7225 156.396 72.8645 156.017L74.4838 156.472C74.3134 157.021 74.0269 157.504 73.6245 157.92C73.222 158.332 72.7248 158.654 72.133 158.886C71.5411 159.114 70.8759 159.227 70.1373 159.227ZM78.161 148.091L80.7747 152.551L83.3883 148.091H85.3201L81.7974 153.545L85.3201 159H83.3883L80.7747 154.767L78.161 159H76.2292L79.6951 153.545L76.2292 148.091H78.161ZM90.9221 159.256C90.2308 159.256 89.6034 159.125 89.04 158.865C88.4765 158.6 88.0291 158.219 87.6976 157.722C87.3662 157.22 87.2005 156.614 87.2005 155.903C87.2005 155.278 87.3236 154.772 87.5698 154.384C87.816 153.991 88.1451 153.683 88.557 153.46C88.9689 153.238 89.4235 153.072 89.9206 152.963C90.4225 152.849 90.9268 152.759 91.4334 152.693C92.0963 152.608 92.6337 152.544 93.0456 152.501C93.4623 152.454 93.7653 152.376 93.9547 152.267C94.1489 152.158 94.2459 151.969 94.2459 151.699V151.642C94.2459 150.941 94.0542 150.397 93.6706 150.009C93.2918 149.62 92.7166 149.426 91.9448 149.426C91.1446 149.426 90.5172 149.601 90.0627 149.952C89.6081 150.302 89.2885 150.676 89.1039 151.074L87.513 150.506C87.7971 149.843 88.1758 149.327 88.6493 148.957C89.1275 148.583 89.6484 148.323 90.2118 148.176C90.78 148.025 91.3387 147.949 91.888 147.949C92.2383 147.949 92.6408 147.991 93.0953 148.077C93.5546 148.157 93.9973 148.325 94.4235 148.581C94.8543 148.837 95.2118 149.223 95.4959 149.739C95.78 150.255 95.9221 150.946 95.9221 151.812V159H94.2459V157.523H94.1607C94.0471 157.759 93.8577 158.013 93.5925 158.283C93.3274 158.553 92.9746 158.782 92.5343 158.972C92.0939 159.161 91.5565 159.256 90.9221 159.256ZM91.1777 157.75C91.8406 157.75 92.3993 157.62 92.8539 157.359C93.3132 157.099 93.6588 156.763 93.8908 156.351C94.1275 155.939 94.2459 155.506 94.2459 155.051V153.517C94.1749 153.602 94.0186 153.68 93.7772 153.751C93.5404 153.818 93.2658 153.877 92.9533 153.929C92.6455 153.976 92.3449 154.019 92.0513 154.057C91.7625 154.09 91.5281 154.118 91.3482 154.142C90.9126 154.199 90.5054 154.291 90.1266 154.419C89.7525 154.542 89.4495 154.729 89.2175 154.98C88.9902 155.226 88.8766 155.562 88.8766 155.989C88.8766 156.571 89.092 157.011 89.5229 157.31C89.9585 157.603 90.5101 157.75 91.1777 157.75ZM98.9814 159V148.091H100.601V149.795H100.743C100.97 149.213 101.337 148.761 101.844 148.439C102.35 148.112 102.959 147.949 103.669 147.949C104.389 147.949 104.988 148.112 105.466 148.439C105.949 148.761 106.325 149.213 106.595 149.795H106.709C106.988 149.232 107.407 148.785 107.966 148.453C108.524 148.117 109.194 147.949 109.976 147.949C110.951 147.949 111.749 148.254 112.369 148.865C112.989 149.471 113.3 150.416 113.3 151.699V159H111.623V151.699C111.623 150.894 111.403 150.319 110.963 149.973C110.523 149.627 110.004 149.455 109.407 149.455C108.64 149.455 108.046 149.687 107.625 150.151C107.203 150.61 106.993 151.192 106.993 151.898V159H105.288V151.528C105.288 150.908 105.087 150.409 104.684 150.03C104.282 149.646 103.764 149.455 103.129 149.455C102.693 149.455 102.286 149.571 101.907 149.803C101.533 150.035 101.23 150.357 100.998 150.768C100.771 151.176 100.657 151.647 100.657 152.182V159H98.9814ZM116.364 163.091V148.091H117.983V149.824H118.182C118.305 149.634 118.476 149.393 118.694 149.099C118.916 148.801 119.233 148.536 119.645 148.304C120.062 148.067 120.626 147.949 121.336 147.949C122.254 147.949 123.064 148.179 123.765 148.638C124.465 149.097 125.012 149.748 125.405 150.591C125.798 151.434 125.995 152.428 125.995 153.574C125.995 154.729 125.798 155.731 125.405 156.578C125.012 157.421 124.468 158.074 123.772 158.538C123.076 158.998 122.273 159.227 121.364 159.227C120.663 159.227 120.102 159.111 119.681 158.879C119.26 158.643 118.935 158.375 118.708 158.077C118.481 157.774 118.305 157.523 118.182 157.324H118.04V163.091H116.364ZM118.012 153.545C118.012 154.369 118.133 155.096 118.374 155.726C118.616 156.351 118.968 156.841 119.432 157.196C119.896 157.546 120.465 157.722 121.137 157.722C121.838 157.722 122.422 157.537 122.891 157.168C123.365 156.794 123.72 156.292 123.956 155.662C124.198 155.027 124.319 154.322 124.319 153.545C124.319 152.778 124.2 152.087 123.964 151.472C123.732 150.851 123.379 150.361 122.905 150.001C122.437 149.637 121.847 149.455 121.137 149.455C120.455 149.455 119.882 149.627 119.418 149.973C118.954 150.314 118.604 150.792 118.367 151.408C118.13 152.018 118.012 152.731 118.012 153.545ZM130.228 144.455V159H128.552V144.455H130.228ZM137.872 159.227C136.82 159.227 135.914 158.995 135.151 158.531C134.394 158.062 133.809 157.409 133.397 156.571C132.99 155.728 132.786 154.748 132.786 153.631C132.786 152.513 132.99 151.528 133.397 150.676C133.809 149.819 134.382 149.152 135.116 148.673C135.855 148.19 136.716 147.949 137.701 147.949C138.269 147.949 138.83 148.044 139.384 148.233C139.938 148.422 140.443 148.73 140.897 149.156C141.352 149.578 141.714 150.136 141.984 150.832C142.254 151.528 142.389 152.385 142.389 153.403V154.114H133.98V152.665H140.684C140.684 152.049 140.561 151.5 140.315 151.017C140.073 150.534 139.728 150.153 139.278 149.874C138.833 149.594 138.307 149.455 137.701 149.455C137.034 149.455 136.456 149.62 135.968 149.952C135.485 150.278 135.114 150.705 134.853 151.23C134.593 151.756 134.463 152.319 134.463 152.92V153.886C134.463 154.71 134.605 155.409 134.889 155.982C135.177 156.55 135.578 156.983 136.089 157.281C136.6 157.575 137.195 157.722 137.872 157.722C138.312 157.722 138.71 157.66 139.065 157.537C139.425 157.409 139.735 157.22 139.995 156.969C140.256 156.713 140.457 156.396 140.599 156.017L142.218 156.472C142.048 157.021 141.761 157.504 141.359 157.92C140.956 158.332 140.459 158.654 139.867 158.886C139.276 159.114 138.61 159.227 137.872 159.227ZM146.16 159.114C145.81 159.114 145.509 158.988 145.258 158.737C145.007 158.486 144.882 158.186 144.882 157.835C144.882 157.485 145.007 157.184 145.258 156.933C145.509 156.682 145.81 156.557 146.16 156.557C146.51 156.557 146.811 156.682 147.062 156.933C147.313 157.184 147.438 157.485 147.438 157.835C147.438 158.067 147.379 158.28 147.261 158.474C147.147 158.669 146.993 158.825 146.799 158.943C146.61 159.057 146.397 159.114 146.16 159.114ZM158.827 162.835C157.378 162.835 156.097 162.636 154.985 162.239C153.872 161.846 152.937 161.266 152.179 160.499C151.422 159.732 150.849 158.792 150.46 157.679C150.072 156.566 149.878 155.293 149.878 153.858C149.878 152.471 150.075 151.23 150.468 150.136C150.865 149.043 151.441 148.115 152.193 147.352C152.951 146.585 153.869 146 154.949 145.598C156.033 145.196 157.26 144.994 158.628 144.994C159.959 144.994 161.123 145.212 162.122 145.648C163.126 146.079 163.964 146.663 164.637 147.402C165.314 148.136 165.82 148.962 166.156 149.881C166.497 150.799 166.668 151.746 166.668 152.722C166.668 153.408 166.635 154.104 166.568 154.81C166.502 155.515 166.362 156.164 166.149 156.756C165.936 157.343 165.607 157.816 165.162 158.176C164.722 158.536 164.125 158.716 163.372 158.716C163.041 158.716 162.676 158.664 162.279 158.56C161.881 158.455 161.528 158.283 161.22 158.041C160.913 157.8 160.73 157.475 160.673 157.068H160.588C160.475 157.343 160.299 157.603 160.063 157.849C159.831 158.096 159.525 158.292 159.146 158.439C158.772 158.586 158.316 158.65 157.776 158.631C157.16 158.607 156.618 158.47 156.149 158.219C155.681 157.963 155.288 157.617 154.97 157.182C154.658 156.741 154.421 156.232 154.26 155.655C154.104 155.072 154.026 154.445 154.026 153.773C154.026 153.134 154.12 152.549 154.31 152.018C154.499 151.488 154.762 151.024 155.098 150.626C155.439 150.229 155.837 149.911 156.291 149.675C156.751 149.433 157.245 149.284 157.776 149.227C158.249 149.18 158.68 149.201 159.068 149.291C159.457 149.376 159.776 149.507 160.027 149.682C160.278 149.852 160.437 150.042 160.503 150.25H160.588V149.455H162.094V155.875C162.094 156.273 162.205 156.623 162.428 156.926C162.65 157.229 162.975 157.381 163.401 157.381C163.884 157.381 164.253 157.215 164.509 156.884C164.769 156.552 164.947 156.041 165.041 155.349C165.141 154.658 165.191 153.773 165.191 152.693C165.191 152.059 165.103 151.434 164.928 150.818C164.757 150.198 164.497 149.618 164.146 149.078C163.801 148.538 163.363 148.062 162.833 147.651C162.302 147.239 161.68 146.917 160.965 146.685C160.254 146.448 159.447 146.33 158.543 146.33C157.43 146.33 156.433 146.502 155.553 146.848C154.677 147.189 153.931 147.688 153.316 148.347C152.705 149 152.238 149.795 151.916 150.733C151.599 151.666 151.441 152.726 151.441 153.915C151.441 155.122 151.599 156.195 151.916 157.132C152.238 158.07 152.712 158.86 153.337 159.504C153.967 160.148 154.745 160.636 155.673 160.967C156.602 161.304 157.672 161.472 158.884 161.472C159.405 161.472 159.918 161.422 160.425 161.322C160.932 161.223 161.379 161.114 161.767 160.996C162.155 160.877 162.435 160.79 162.605 160.733L163.003 162.04C162.709 162.163 162.326 162.286 161.852 162.409C161.384 162.532 160.882 162.634 160.347 162.714C159.816 162.795 159.31 162.835 158.827 162.835ZM158.003 157.182C158.637 157.182 159.151 157.054 159.544 156.798C159.937 156.543 160.224 156.157 160.404 155.641C160.584 155.125 160.673 154.473 160.673 153.688C160.673 152.892 160.574 152.272 160.375 151.827C160.176 151.382 159.883 151.069 159.494 150.889C159.106 150.709 158.628 150.619 158.06 150.619C157.52 150.619 157.058 150.761 156.675 151.045C156.296 151.325 156.005 151.699 155.801 152.168C155.602 152.632 155.503 153.138 155.503 153.688C155.503 154.294 155.584 154.864 155.744 155.399C155.905 155.929 156.168 156.36 156.533 156.692C156.897 157.018 157.387 157.182 158.003 157.182ZM173.58 163.318C172.77 163.318 172.074 163.214 171.492 163.006C170.91 162.802 170.424 162.532 170.036 162.196C169.653 161.865 169.347 161.509 169.12 161.131L170.455 160.193C170.607 160.392 170.798 160.619 171.03 160.875C171.262 161.135 171.58 161.36 171.982 161.55C172.389 161.744 172.922 161.841 173.58 161.841C174.461 161.841 175.188 161.628 175.76 161.202C176.333 160.776 176.62 160.108 176.62 159.199V156.983H176.478C176.355 157.182 176.18 157.428 175.952 157.722C175.73 158.01 175.408 158.268 174.986 158.496C174.57 158.718 174.006 158.83 173.296 158.83C172.415 158.83 171.625 158.621 170.924 158.205C170.228 157.788 169.676 157.182 169.269 156.386C168.867 155.591 168.665 154.625 168.665 153.489C168.665 152.371 168.862 151.398 169.255 150.57C169.648 149.736 170.195 149.092 170.895 148.638C171.596 148.179 172.406 147.949 173.324 147.949C174.035 147.949 174.598 148.067 175.015 148.304C175.436 148.536 175.758 148.801 175.981 149.099C176.208 149.393 176.383 149.634 176.506 149.824H176.677V148.091H178.296V159.312C178.296 160.25 178.083 161.012 177.657 161.599C177.235 162.191 176.667 162.625 175.952 162.899C175.242 163.179 174.451 163.318 173.58 163.318ZM173.523 157.324C174.196 157.324 174.764 157.17 175.228 156.862C175.692 156.554 176.045 156.112 176.286 155.534C176.528 154.956 176.648 154.265 176.648 153.46C176.648 152.674 176.53 151.981 176.293 151.379C176.056 150.778 175.706 150.307 175.242 149.966C174.778 149.625 174.205 149.455 173.523 149.455C172.813 149.455 172.221 149.634 171.748 149.994C171.279 150.354 170.926 150.837 170.689 151.443C170.457 152.049 170.341 152.722 170.341 153.46C170.341 154.218 170.46 154.888 170.697 155.47C170.938 156.048 171.293 156.502 171.762 156.834C172.235 157.161 172.823 157.324 173.523 157.324ZM181.364 159V148.091H182.983V149.795H183.126C183.353 149.213 183.72 148.761 184.226 148.439C184.733 148.112 185.341 147.949 186.052 147.949C186.771 147.949 187.37 148.112 187.849 148.439C188.331 148.761 188.708 149.213 188.978 149.795H189.091C189.371 149.232 189.79 148.785 190.349 148.453C190.907 148.117 191.577 147.949 192.358 147.949C193.334 147.949 194.132 148.254 194.752 148.865C195.372 149.471 195.682 150.416 195.682 151.699V159H194.006V151.699C194.006 150.894 193.786 150.319 193.346 149.973C192.905 149.627 192.387 149.455 191.79 149.455C191.023 149.455 190.429 149.687 190.008 150.151C189.586 150.61 189.376 151.192 189.376 151.898V159H187.671V151.528C187.671 150.908 187.47 150.409 187.067 150.03C186.665 149.646 186.146 149.455 185.512 149.455C185.076 149.455 184.669 149.571 184.29 149.803C183.916 150.035 183.613 150.357 183.381 150.768C183.154 151.176 183.04 151.647 183.04 152.182V159H181.364ZM201.957 159.256C201.266 159.256 200.639 159.125 200.075 158.865C199.512 158.6 199.064 158.219 198.733 157.722C198.401 157.22 198.236 156.614 198.236 155.903C198.236 155.278 198.359 154.772 198.605 154.384C198.851 153.991 199.18 153.683 199.592 153.46C200.004 153.238 200.459 153.072 200.956 152.963C201.458 152.849 201.962 152.759 202.469 152.693C203.131 152.608 203.669 152.544 204.081 152.501C204.497 152.454 204.8 152.376 204.99 152.267C205.184 152.158 205.281 151.969 205.281 151.699V151.642C205.281 150.941 205.089 150.397 204.706 150.009C204.327 149.62 203.752 149.426 202.98 149.426C202.18 149.426 201.552 149.601 201.098 149.952C200.643 150.302 200.324 150.676 200.139 151.074L198.548 150.506C198.832 149.843 199.211 149.327 199.684 148.957C200.163 148.583 200.684 148.323 201.247 148.176C201.815 148.025 202.374 147.949 202.923 147.949C203.273 147.949 203.676 147.991 204.131 148.077C204.59 148.157 205.032 148.325 205.459 148.581C205.89 148.837 206.247 149.223 206.531 149.739C206.815 150.255 206.957 150.946 206.957 151.812V159H205.281V157.523H205.196C205.082 157.759 204.893 158.013 204.628 158.283C204.363 158.553 204.01 158.782 203.569 158.972C203.129 159.161 202.592 159.256 201.957 159.256ZM202.213 157.75C202.876 157.75 203.434 157.62 203.889 157.359C204.348 157.099 204.694 156.763 204.926 156.351C205.163 155.939 205.281 155.506 205.281 155.051V153.517C205.21 153.602 205.054 153.68 204.812 153.751C204.576 153.818 204.301 153.877 203.988 153.929C203.681 153.976 203.38 154.019 203.086 154.057C202.798 154.09 202.563 154.118 202.383 154.142C201.948 154.199 201.541 154.291 201.162 154.419C200.788 154.542 200.485 154.729 200.253 154.98C200.025 155.226 199.912 155.562 199.912 155.989C199.912 156.571 200.127 157.011 200.558 157.31C200.994 157.603 201.545 157.75 202.213 157.75ZM210.017 159V148.091H211.693V159H210.017ZM210.869 146.273C210.542 146.273 210.26 146.161 210.024 145.939C209.792 145.716 209.676 145.449 209.676 145.136C209.676 144.824 209.792 144.556 210.024 144.334C210.26 144.111 210.542 144 210.869 144C211.195 144 211.475 144.111 211.707 144.334C211.944 144.556 212.062 144.824 212.062 145.136C212.062 145.449 211.944 145.716 211.707 145.939C211.475 146.161 211.195 146.273 210.869 146.273ZM216.439 144.455V159H214.763V144.455H216.439ZM220.73 159.114C220.38 159.114 220.079 158.988 219.828 158.737C219.577 158.486 219.452 158.186 219.452 157.835C219.452 157.485 219.577 157.184 219.828 156.933C220.079 156.682 220.38 156.557 220.73 156.557C221.081 156.557 221.381 156.682 221.632 156.933C221.883 157.184 222.009 157.485 222.009 157.835C222.009 158.067 221.95 158.28 221.831 158.474C221.718 158.669 221.564 158.825 221.369 158.943C221.18 159.057 220.967 159.114 220.73 159.114ZM229.448 159.227C228.426 159.227 227.545 158.986 226.806 158.503C226.068 158.02 225.499 157.355 225.102 156.507C224.704 155.66 224.505 154.691 224.505 153.602C224.505 152.494 224.709 151.517 225.116 150.669C225.528 149.817 226.101 149.152 226.835 148.673C227.573 148.19 228.435 147.949 229.42 147.949C230.187 147.949 230.878 148.091 231.494 148.375C232.109 148.659 232.614 149.057 233.007 149.568C233.4 150.08 233.643 150.676 233.738 151.358H232.062C231.934 150.861 231.65 150.42 231.21 150.037C230.774 149.649 230.187 149.455 229.448 149.455C228.795 149.455 228.222 149.625 227.73 149.966C227.242 150.302 226.861 150.778 226.586 151.393C226.316 152.004 226.181 152.722 226.181 153.545C226.181 154.388 226.314 155.122 226.579 155.747C226.849 156.372 227.228 156.857 227.715 157.203C228.208 157.549 228.785 157.722 229.448 157.722C229.884 157.722 230.279 157.646 230.634 157.494C230.99 157.343 231.29 157.125 231.536 156.841C231.783 156.557 231.958 156.216 232.062 155.818H233.738C233.643 156.462 233.409 157.042 233.035 157.558C232.666 158.07 232.176 158.477 231.565 158.78C230.959 159.078 230.253 159.227 229.448 159.227ZM240.62 159.227C239.635 159.227 238.771 158.993 238.028 158.524C237.289 158.055 236.712 157.4 236.295 156.557C235.883 155.714 235.677 154.729 235.677 153.602C235.677 152.466 235.883 151.474 236.295 150.626C236.712 149.779 237.289 149.121 238.028 148.652C238.771 148.183 239.635 147.949 240.62 147.949C241.605 147.949 242.467 148.183 243.205 148.652C243.949 149.121 244.526 149.779 244.938 150.626C245.355 151.474 245.563 152.466 245.563 153.602C245.563 154.729 245.355 155.714 244.938 156.557C244.526 157.4 243.949 158.055 243.205 158.524C242.467 158.993 241.605 159.227 240.62 159.227ZM240.62 157.722C241.368 157.722 241.984 157.53 242.467 157.146C242.95 156.763 243.307 156.259 243.539 155.634C243.771 155.009 243.887 154.331 243.887 153.602C243.887 152.873 243.771 152.194 243.539 151.564C243.307 150.934 242.95 150.425 242.467 150.037C241.984 149.649 241.368 149.455 240.62 149.455C239.872 149.455 239.257 149.649 238.774 150.037C238.291 150.425 237.933 150.934 237.701 151.564C237.469 152.194 237.353 152.873 237.353 153.602C237.353 154.331 237.469 155.009 237.701 155.634C237.933 156.259 238.291 156.763 238.774 157.146C239.257 157.53 239.872 157.722 240.62 157.722ZM248.122 159V148.091H249.741V149.795H249.883C250.111 149.213 250.478 148.761 250.984 148.439C251.491 148.112 252.099 147.949 252.809 147.949C253.529 147.949 254.128 148.112 254.606 148.439C255.089 148.761 255.466 149.213 255.736 149.795H255.849C256.129 149.232 256.548 148.785 257.106 148.453C257.665 148.117 258.335 147.949 259.116 147.949C260.092 147.949 260.89 148.254 261.51 148.865C262.13 149.471 262.44 150.416 262.44 151.699V159H260.764V151.699C260.764 150.894 260.544 150.319 260.104 149.973C259.663 149.627 259.145 149.455 258.548 149.455C257.781 149.455 257.187 149.687 256.765 150.151C256.344 150.61 256.133 151.192 256.133 151.898V159H254.429V151.528C254.429 150.908 254.228 150.409 253.825 150.03C253.423 149.646 252.904 149.455 252.27 149.455C251.834 149.455 251.427 149.571 251.048 149.803C250.674 150.035 250.371 150.357 250.139 150.768C249.912 151.176 249.798 151.647 249.798 152.182V159H248.122Z" fill="black"/>
</svg>
